<svg xmlns="http://www.w3.org/2000/svg" xmlns:xlink="http://www.w3.org/1999/xlink" width="459" zoomAndPan="magnify" viewBox="0 0 344.25 374.999991" height="500" preserveAspectRatio="xMidYMid meet" version="1.0"><defs><clipPath id="c00e481e48"><path d="M 80.148438 0.40625 L 309 0.40625 L 309 374.589844 L 80.148438 374.589844 Z M 80.148438 0.40625 " clip-rule="nonzero"/></clipPath></defs><g clip-path="url(#c00e481e48)"><path fill="#000000" d="M 91.207031 306.546875 L 94.507812 303.242188 C 94.769531 303.003906 95.074219 302.847656 95.339844 302.621094 L 210.507812 187.367188 L 96.804688 73.566406 C 96.738281 73.527344 91.535156 68.953125 89.464844 66.285156 C 89.410156 66.21875 89.371094 66.152344 89.332031 66.074219 C 84.035156 59.203125 80.839844 50.613281 80.839844 41.253906 C 80.839844 30.828125 84.777344 21.351562 91.207031 14.136719 L 94.507812 10.820312 C 101.71875 4.394531 111.199219 0.445312 121.617188 0.445312 C 132.324219 0.445312 142.058594 4.621094 149.332031 11.386719 L 149.808594 11.863281 C 149.820312 11.835938 149.820312 11.824219 149.835938 11.808594 C 149.835938 11.808594 299.5625 161.453125 300.3125 162.417969 C 305.660156 169.316406 308.871094 177.957031 308.871094 187.367188 C 308.871094 196.765625 305.660156 205.394531 300.3125 212.292969 C 298.199219 215.042969 152.738281 359.992188 152.738281 359.992188 L 147.917969 364.816406 C 140.816406 370.828125 131.652344 374.476562 121.617188 374.476562 C 112.175781 374.476562 103.511719 371.238281 96.605469 365.847656 C 93.941406 363.769531 91.535156 361.367188 89.464844 358.695312 C 84.074219 351.785156 80.839844 343.113281 80.839844 333.664062 C 80.839844 323.609375 84.5625 314.488281 90.585938 307.378906 C 90.808594 307.117188 90.980469 306.8125 91.207031 306.546875 " fill-opacity="1" fill-rule="nonzero"/></g></svg>