<?xml version="1.0" encoding="UTF-8"?>
<svg id="Layer_2" data-name="Layer 2" xmlns="http://www.w3.org/2000/svg" viewBox="0 0 597.97 123.5">
  <defs>
    <style>
      .cls-1 {
        fill-rule: evenodd;
      }

      .cls-1, .cls-2 {
        fill: #006438;
      }

      .cls-3 {
        fill: #50ae2f;
      }
    </style>
  </defs>
  <path class="cls-3" d="m295.35,85.82h-11.79l5.8-25.13-23.05-.07s-5.75,25.11-5.77,25.2h-11.79l12.65-55.58,12.12-1.45-5.12,22.32,23.09-.02,4.72-20.85,12.12-1.45s-9.55,39.2-12.98,57.04Z"/>
  <path class="cls-3" d="m172.62,58.07c.75-3.11,1.29-6.23,1.29-9.23,0-10.84-6.98-12.67-10.95-12.67-16.85,0-19,26.19-19,30.17,0,8.59,5.16,12.34,10.95,12.34,11.49,0,15.78-11.81,17.71-20.61m11.16,3.33c-2.36,9.23-8.91,25.23-29.09,25.23-14.28,0-22.12-7.41-22.12-22,0-1.89.14-3.98.47-6.19.06-.54.13-1.09.22-1.64,3.88-24.19,14.38-47.51,37.4-47.51,8.26,0,11.3.18,14.22-.64l-1.98,9.66c-4.25,1.09-4.29.98-15.21.98-4.89,0-8.29,2.06-10.63,4.31-1.16,1.12-2.06,2.32-2.75,3.43-.7,1.1-1.2,2.11-1.57,2.87,3.07-.95,6.43-1.56,10.22-1.56,14.06,0,22.44,7.84,22.44,21.69,0,3.75-.64,7.62-1.61,11.37"/>
  <polygon class="cls-3" points="361.03 30.23 349.08 30.23 326.84 51.89 332.1 28.78 319.98 30.23 311.62 66.71 307.37 85.74 319.12 85.82 326.22 54.61 341.32 85.82 354.32 85.82 337.51 53.03 361.03 30.23"/>
  <g>
    <path class="cls-2" d="m0,53.17C0,23.82,23.77.04,53.1,0v19.22c-18.73.03-33.89,15.22-33.89,33.96s15.2,33.95,33.95,33.95,33.96-15.2,33.96-33.95l19.21-.12c0,29.48-23.8,53.29-53.17,53.29C23.8,106.34,0,82.53,0,53.17"/>
    <path class="cls-3" d="m29.71,53.17c0-13.03,10.56-23.59,23.59-23.59s23.58,10.56,23.58,23.59-10.56,23.58-23.58,23.58-23.59-10.56-23.59-23.58"/>
    <path class="cls-2" d="m69.65,23.3c0-7.46,6.05-13.52,13.52-13.52s13.52,6.06,13.52,13.52-6.05,13.52-13.52,13.52-13.52-6.05-13.52-13.52"/>
  </g>
  <path class="cls-2" d="m552.53,85.82h-17.69l13.05-55.58,18.03-1.45-5.54,23.59,18.69-22.14h18.55l-22.48,24.49,13.67,31.11-19.01-.02-10.76-27.91-6.52,27.91Z"/>
  <path class="cls-2" d="m533.91,45.49s-4.45-5.78-12.39-5.78c-10.42,0-18.19,8.89-18.19,20.85,0,8.89,5.01,14.21,13.39,14.21,6.04,0,12.33-4.08,14-5.25l-3.13,13.9s-5.23,3.3-15.47,3.3c-16.35,0-26.26-9.61-26.26-25.44,0-19.93,13.79-33.72,33.82-33.72,9.67,0,15.54,3.19,17.28,4.3l-3.06,13.64Z"/>
  <g>
    <path class="cls-1" d="m188.58,112.31c.5-2.24.84-3.56,1.59-4.32.42-.45.95-.77,1.56-.77.38,0,.63.14.95.32l1.04-2.49c-.38-.16-.68-.27-1.04-.27-.7,0-1.61.45-2.35,1.38-.23.27-.41.56-.59.88l.49-1.95-2.6.35-2.66,12.15h2.42l1.2-5.27Z"/>
    <path class="cls-1" d="m202.41,111.51c-.44,1.98-1.4,4.63-3.98,4.63-1.29,0-2.45-.85-2.45-2.78,0-.89.48-6.77,4.27-6.77.89,0,2.45.41,2.45,2.84,0,.67-.12,1.37-.29,2.07Zm2.5.75c.22-.85.37-1.71.37-2.55,0-3.11-1.88-4.87-5.03-4.87-5.26,0-6.82,5.2-6.82,8.15,0,3.28,1.76,4.94,4.96,4.94,4.53,0,6-3.6,6.53-5.67Z"/>
    <path class="cls-1" d="m223.8,108.06c.37-.33,1.3-1.2,2.81-1.2,1.33,0,2.74.81,2.74,3.1,0,2.8-2.21,5.84-6.32,5.84-.36,0-.64-.05-.98-.07l1.75-7.66Zm.65-2.97l-2.5.35-4.06,18.06h2.41s.84-3.75,1.35-5.94c.46.02.94.02,1.39.02,1.28,0,4.93,0,7.33-3.09.98-1.27,1.61-3.07,1.61-4.82,0-3.04-2.02-4.8-4.33-4.8-1.52,0-2.52.61-3.44,1.18l.24-.95Z"/>
    <path class="cls-2" d="m134.8,117.89c-5.58,0-6.02-4.33-5.34-7.06.74-2.99,2.55-6.05,7.43-6.05,4.01,0,6,3.01,5.11,6.94-1.27,5.62-4.83,6.17-7.2,6.17Zm1.73-10.6c-1.11,0-2.29.44-3.13,3.98-.89,3.76.83,4.12,1.61,4.12,1.58,0,2.47-1.73,2.95-3.83.7-3-.04-4.28-1.44-4.28Z"/>
    <path class="cls-2" d="m149.84,117.56c-.76.14-1.48.31-2.29.29-1.85-.05-4.39-.36-3.3-4.79l1.26-5.28h-1.65l.63-2.7h1.62l.79-3.18,4.14-1-1.03,4.18h2.4l-.63,2.66h-2.39l-.99,4.14c-.14.52-.45,1.85-.45,2.25,0,.76.62.97,1.12.97.61,0,1.06-.1,1.49-.24l-.72,2.7Z"/>
    <path class="cls-2" d="m158.34,105.94c.62-.43,1.63-1.14,3.18-1.14,2.49,0,4.68,2.26,3.79,6.42-1.21,5.67-5.57,6.43-9.48,6.43l-1.33,5.84h-3.87l4.14-18.09,3.84-.57-.26,1.11Zm-1.87,9.06c.19.02.33.06.52.06,2.76,0,4.01-2.23,4.37-4.56.33-2.16-.89-2.9-1.72-2.9-.69,0-1.25.35-1.64.68l-1.53,6.72Z"/>
    <path class="cls-2" d="m208.67,105.42l2.58-.34-1.67,7.33c-.66,2.84.39,3.58,1.81,3.58,1.7,0,3.07-1.21,3.07-1.21l2.14-9.35,2.53-.32-2.84,12.47h-2.33l.24-1.01s-1.78,1.34-4.17,1.34c-2.21,0-4.01-1.11-2.96-5.45l1.6-7.02Z"/>
    <path class="cls-2" d="m181.13,105.09c-2.2,0-7.7,0-9.26,6.55-.81,3.42,1.34,6.24,4.16,6.25,2.03,0,3.23-1.11,3.63-1.44l-.26,1.11c-.32,1.29-1.03,3.74-3.87,3.74-1.76,0-3.08-1.11-3.53-1.61l-1.09,1.64c.43.41,1.79,1.73,4.67,1.73,1.66,0,3.39-.47,4.5-1.76.78-.9,1.17-2.09,1.57-3.74l2.87-12.47h-3.39Zm-1.15,9.52s-1.19,1.39-2.97,1.39c-2.17,0-3.09-2.22-2.54-4.39,1.22-4.9,5.37-4.73,6.16-4.73.36,0,.79.02,1.15.02l-1.79,7.71Z"/>
  </g>
  <path class="cls-3" d="m236.89,85.82h-10.31l1.2-5.11c-1.86,1.53-6.82,5.63-16.1,5.59-12.91-.06-23.26-11.94-19.54-27.55,7.15-29.95,32.31-29.97,42.35-29.97h15.54s-13.13,57.04-13.13,57.04Zm.55-48.76c-1.64,0-3.61-.1-5.25-.1-3.6,0-22.58-.75-28.18,21.65-2.49,9.94,2.2,19.07,12.13,19.07,8.17,0,13.1-5.35,13.1-5.35l8.2-35.27Z"/>
  <path class="cls-3" d="m401.93,85.82h-10.31l1.2-5.11c-1.86,1.53-6.82,5.63-16.1,5.59-12.91-.06-23.26-11.94-19.54-27.55,7.15-29.95,32.31-29.97,42.35-29.97h15.54s-13.13,57.04-13.13,57.04Zm.55-48.76c-1.64,0-3.61-.1-5.25-.1-3.6,0-22.58-.75-28.18,21.65-2.49,9.94,2.2,19.07,12.13,19.07,8.17,0,13.1-5.35,13.1-5.35l8.2-35.27Z"/>
  <path class="cls-2" d="m416.03,85.82l3.13-13.33s8.83-4.83,16.85-19.69c7.26-13.46,11.64-24.01,11.64-24.01h34.64l-10.25,43.7h7.86l-3.13,13.33h-60.74Zm48.32-43.59h-8.05s-7.2,14.23-7.2,14.23c-4.31,8.37-8.11,13.23-10.85,16.04h19.01s7.1-30.27,7.1-30.27Z"/>
</svg>