<?xml version="1.0" encoding="UTF-8"?><svg xmlns="http://www.w3.org/2000/svg" xmlns:xlink="http://www.w3.org/1999/xlink" contentScriptType="text/ecmascript" width="375" zoomAndPan="magnify" contentStyleType="text/css" viewBox="0 0 375 154.499995" height="154.499995" preserveAspectRatio="xMidYMid meet" version="1.0"><path fill="rgb(100%, 100%, 100%)" d="M 346.171875 37.003906 C 343.132812 37.003906 340.667969 39.464844 340.667969 42.5 L 340.667969 95.53125 C 340.667969 98.566406 343.132812 101.027344 346.171875 101.027344 C 349.214844 101.027344 351.679688 98.566406 351.679688 95.53125 L 351.679688 42.5 C 351.679688 39.464844 349.214844 37.003906 346.171875 37.003906 Z M 346.171875 37.003906 " fill-opacity="1" fill-rule="nonzero"/><path fill="rgb(100%, 100%, 100%)" d="M 200.9375 66.082031 C 201.019531 66.175781 201.125 66.277344 201.214844 66.367188 C 203.34375 68.492188 206.761719 68.5 208.890625 66.375 C 211.019531 64.25 211.023438 60.921875 208.894531 58.796875 C 208.667969 58.574219 208.414062 58.265625 208.164062 58.085938 C 198.304688 48.851562 182.828125 49.011719 173.195312 58.621094 C 168.28125 63.527344 165.828125 69.960938 165.832031 76.390625 C 165.828125 82.820312 168.28125 89.253906 173.195312 94.160156 C 182.828125 103.769531 198.304688 103.929688 208.164062 94.695312 C 208.414062 94.519531 208.667969 94.210938 208.894531 93.984375 C 211.023438 91.859375 211.019531 88.53125 208.890625 86.40625 C 206.761719 84.28125 203.34375 84.289062 201.214844 86.414062 C 201.125 86.507812 201.019531 86.605469 200.9375 86.699219 C 195.324219 92.117188 186.378906 92.066406 180.835938 86.535156 C 178.03125 83.734375 176.628906 80.0625 176.636719 76.390625 C 176.628906 72.71875 178.03125 69.046875 180.835938 66.246094 C 186.378906 60.714844 195.324219 60.667969 200.9375 66.082031 Z M 200.9375 66.082031 " fill-opacity="1" fill-rule="nonzero"/><path fill="rgb(100%, 100%, 100%)" d="M 286.097656 51.644531 C 281.398438 51.644531 277.214844 53.816406 274.484375 57.203125 L 274.484375 57.101562 C 274.484375 54.089844 272.039062 51.644531 269.019531 51.644531 C 266 51.644531 263.550781 54.089844 263.550781 57.101562 L 263.550781 95.570312 C 263.550781 98.582031 266 101.027344 269.019531 101.027344 C 272.039062 101.027344 274.484375 98.582031 274.484375 95.570312 L 274.484375 74.203125 L 274.496094 74.203125 L 274.484375 74.082031 L 274.484375 74.078125 C 274.484375 67.714844 279.65625 62.554688 286.03125 62.554688 L 286.09375 62.558594 L 286.09375 62.554688 C 289.113281 62.554688 291.558594 60.113281 291.558594 57.101562 C 291.5625 54.089844 289.113281 51.644531 286.097656 51.644531 Z M 286.097656 51.644531 " fill-opacity="1" fill-rule="nonzero"/><path fill="rgb(100%, 100%, 100%)" d="M 252.253906 51.648438 C 249.871094 51.648438 247.867188 53.175781 247.117188 55.296875 L 236.019531 82.582031 L 225.019531 55.535156 C 224.269531 53.417969 222.265625 51.886719 219.882812 51.886719 C 216.863281 51.886719 214.417969 54.328125 214.417969 57.34375 C 214.417969 58.023438 214.527344 58.699219 214.757812 59.300781 L 214.75 59.285156 L 230.117188 97.089844 L 223.511719 113.332031 L 223.539062 113.339844 C 223.234375 114.019531 223.058594 114.765625 223.058594 115.554688 C 223.058594 118.566406 225.503906 121.007812 228.523438 121.007812 C 230.695312 121.007812 232.558594 119.734375 233.4375 117.902344 L 233.453125 117.910156 L 233.515625 117.757812 L 233.59375 117.5625 L 257.382812 59.042969 L 257.386719 59.03125 C 257.613281 58.429688 257.71875 57.78125 257.71875 57.101562 C 257.71875 54.085938 255.273438 51.648438 252.253906 51.648438 Z M 252.253906 51.648438 " fill-opacity="1" fill-rule="nonzero"/><path fill="rgb(100%, 100%, 100%)" d="M 325.265625 66.082031 C 325.347656 66.175781 325.453125 66.277344 325.542969 66.367188 C 327.671875 68.492188 331.089844 68.5 333.21875 66.375 C 335.347656 64.25 335.351562 60.921875 333.222656 58.796875 C 332.996094 58.574219 332.746094 58.265625 332.492188 58.085938 C 322.636719 48.851562 307.152344 49.011719 297.523438 58.621094 C 292.609375 63.527344 290.15625 69.960938 290.160156 76.390625 C 290.15625 82.820312 292.609375 89.253906 297.523438 94.160156 C 307.152344 103.769531 322.636719 103.929688 332.492188 94.695312 C 332.746094 94.519531 332.996094 94.210938 333.222656 93.984375 C 335.351562 91.859375 335.347656 88.53125 333.21875 86.40625 C 331.089844 84.28125 327.671875 84.289062 325.542969 86.414062 C 325.453125 86.507812 325.347656 86.605469 325.265625 86.699219 C 319.652344 92.117188 310.707031 92.066406 305.164062 86.535156 C 302.359375 83.734375 300.957031 80.0625 300.964844 76.390625 C 300.957031 72.71875 302.359375 69.046875 305.164062 66.246094 C 310.707031 60.714844 319.652344 60.667969 325.265625 66.082031 Z M 325.265625 66.082031 " fill-opacity="1" fill-rule="nonzero"/><path fill="rgb(100%, 100%, 100%)" d="M 84.148438 119.882812 L 84.148438 108.84375 C 84.148438 105.855469 81.71875 103.433594 78.722656 103.433594 C 75.730469 103.433594 73.300781 105.855469 73.300781 108.84375 L 73.300781 119.882812 C 73.300781 122.875 75.730469 125.296875 78.722656 125.296875 C 81.71875 125.296875 84.148438 122.875 84.148438 119.882812 " fill-opacity="1" fill-rule="nonzero"/><path fill="rgb(100%, 100%, 100%)" d="M 84.148438 43.765625 L 84.148438 32.726562 C 84.148438 29.738281 81.71875 27.316406 78.722656 27.316406 C 75.730469 27.316406 73.300781 29.738281 73.300781 32.726562 L 73.300781 43.765625 C 73.300781 46.757812 75.730469 49.179688 78.722656 49.179688 C 81.71875 49.179688 84.148438 46.757812 84.148438 43.765625 " fill-opacity="1" fill-rule="nonzero"/><path fill="rgb(100%, 100%, 100%)" d="M 78.691406 134.464844 L 78.691406 138.976562 C 96.015625 138.976562 111.742188 131.953125 123.09375 120.621094 C 134.449219 109.296875 141.488281 93.601562 141.484375 76.3125 C 141.488281 59.023438 134.449219 43.332031 123.09375 32.003906 C 111.742188 20.671875 96.015625 13.648438 78.691406 13.652344 C 61.363281 13.648438 45.636719 20.671875 34.289062 32.003906 C 22.929688 43.332031 15.894531 59.023438 15.894531 76.3125 C 15.894531 93.601562 22.929688 109.296875 34.289062 120.621094 C 45.636719 131.953125 61.363281 138.976562 78.691406 138.976562 L 78.691406 129.953125 C 63.832031 129.949219 50.421875 123.957031 40.679688 114.242188 C 30.945312 104.519531 24.9375 91.140625 24.9375 76.3125 C 24.9375 61.488281 30.945312 48.105469 40.679688 38.386719 C 50.421875 28.671875 63.832031 22.675781 78.691406 22.675781 C 93.546875 22.675781 106.957031 28.671875 116.699219 38.386719 C 126.433594 48.105469 132.441406 61.488281 132.441406 76.3125 C 132.441406 91.140625 126.433594 104.523438 116.699219 114.242188 C 106.957031 123.957031 93.546875 129.949219 78.691406 129.953125 Z M 78.691406 134.464844 " fill-opacity="1" fill-rule="nonzero"/><path fill="rgb(100%, 100%, 100%)" d="M 78.722656 84.578125 C 83.300781 84.578125 87.011719 80.875 87.011719 76.304688 C 87.011719 71.738281 83.300781 68.035156 78.722656 68.035156 C 74.144531 68.035156 70.433594 71.738281 70.433594 76.304688 C 70.433594 80.875 74.144531 84.578125 78.722656 84.578125 " fill-opacity="1" fill-rule="nonzero"/><path fill="rgb(100%, 100%, 100%)" d="M 98.972656 81.71875 L 122.34375 81.71875 C 125.339844 81.71875 127.765625 79.296875 127.765625 76.304688 C 127.765625 73.316406 125.339844 70.890625 122.34375 70.890625 L 98.972656 70.890625 C 95.976562 70.890625 93.546875 73.316406 93.546875 76.304688 C 93.546875 79.296875 95.976562 81.71875 98.972656 81.71875 " fill-opacity="1" fill-rule="nonzero"/><path fill="rgb(100%, 100%, 100%)" d="M 113.4375 103.292969 L 105.617188 95.488281 C 103.5 93.375 100.0625 93.375 97.945312 95.488281 C 95.828125 97.601562 95.828125 101.027344 97.945312 103.144531 L 105.765625 110.949219 C 107.886719 113.0625 111.320312 113.0625 113.441406 110.949219 C 115.558594 108.835938 115.558594 105.40625 113.4375 103.292969 " fill-opacity="1" fill-rule="nonzero"/><path fill="rgb(100%, 100%, 100%)" d="M 59.5 49.46875 L 51.679688 41.664062 C 49.5625 39.550781 46.128906 39.550781 44.007812 41.664062 C 41.890625 43.777344 41.890625 47.207031 44.007812 49.320312 L 51.828125 57.125 C 53.949219 59.238281 57.382812 59.238281 59.5 57.125 C 61.621094 55.011719 61.621094 51.582031 59.5 49.46875 " fill-opacity="1" fill-rule="nonzero"/><path fill="rgb(100%, 100%, 100%)" d="M 51.679688 110.949219 L 59.5 103.144531 C 61.621094 101.027344 61.621094 97.601562 59.5 95.488281 C 57.382812 93.375 53.949219 93.375 51.828125 95.488281 L 44.007812 103.292969 C 41.890625 105.40625 41.890625 108.832031 44.007812 110.949219 C 46.128906 113.0625 49.5625 113.0625 51.679688 110.949219 " fill-opacity="1" fill-rule="nonzero"/><path fill="rgb(100%, 100%, 100%)" d="M 105.617188 57.125 L 113.4375 49.320312 C 115.558594 47.207031 115.558594 43.777344 113.4375 41.664062 C 111.320312 39.550781 107.886719 39.550781 105.769531 41.664062 L 97.945312 49.46875 C 95.828125 51.582031 95.828125 55.011719 97.945312 57.125 C 100.0625 59.238281 103.5 59.238281 105.617188 57.125 " fill-opacity="1" fill-rule="nonzero"/><path fill="rgb(100%, 100%, 100%)" d="M 87.894531 85.273438 C 87.8125 85.355469 87.71875 85.445312 87.644531 85.53125 C 82.621094 90.375 74.621094 90.332031 69.660156 85.382812 C 67.148438 82.878906 65.898438 79.589844 65.902344 76.304688 C 65.898438 73.023438 67.148438 69.734375 69.660156 67.230469 C 74.621094 62.28125 82.621094 62.238281 87.644531 67.082031 C 87.71875 67.167969 87.8125 67.257812 87.894531 67.335938 C 89.800781 69.238281 92.855469 69.246094 94.761719 67.34375 C 96.667969 65.441406 96.671875 62.464844 94.765625 60.5625 C 94.566406 60.363281 94.339844 60.085938 94.113281 59.925781 C 85.292969 51.664062 71.441406 51.808594 62.824219 60.40625 C 59.816406 63.410156 57.839844 67.050781 56.890625 70.890625 L 35.003906 70.890625 C 32.007812 70.890625 29.578125 73.316406 29.578125 76.304688 C 29.578125 79.296875 32.007812 81.71875 35.003906 81.71875 L 56.890625 81.71875 C 57.839844 85.5625 59.816406 89.203125 62.824219 92.203125 C 71.441406 100.804688 85.292969 100.949219 94.113281 92.683594 C 94.339844 92.523438 94.566406 92.25 94.765625 92.050781 C 96.671875 90.148438 96.667969 87.171875 94.761719 85.269531 C 92.855469 83.367188 89.800781 83.375 87.894531 85.273438 Z M 87.894531 85.273438 " fill-opacity="1" fill-rule="nonzero"/></svg>