<svg width="500" height="523" viewBox="0 0 500 523" fill="none" xmlns="http://www.w3.org/2000/svg">
<rect y="23" width="225" height="225" rx="70" fill="black"/>
<rect y="298" width="225" height="225" rx="70" fill="black"/>
<rect x="275" y="298" width="225" height="225" rx="70" fill="black"/>
<path d="M371.868 171.977V171.018C371.974 160.844 373.04 152.748 375.064 146.729C377.088 140.71 379.964 135.836 383.693 132.107C387.422 128.378 391.896 124.942 397.116 121.8C400.259 119.882 403.082 117.618 405.586 115.008C408.089 112.345 410.06 109.282 411.499 105.82C412.99 102.357 413.736 98.522 413.736 94.3139C413.736 89.0937 412.511 84.566 410.06 80.7308C407.61 76.8956 404.334 73.9393 400.233 71.8619C396.131 69.7844 391.577 68.7457 386.57 68.7457C382.202 68.7457 377.994 69.6513 373.945 71.4624C369.897 73.2734 366.515 76.1232 363.798 80.0117C361.081 83.9002 359.51 88.9872 359.084 95.2727H338.949C339.375 86.2173 341.719 78.467 345.98 72.0217C350.295 65.5763 355.968 60.6491 362.999 57.24C370.083 53.831 377.94 52.1264 386.57 52.1264C395.945 52.1264 404.094 53.9908 411.019 57.7195C417.997 61.4482 423.377 66.5618 427.159 73.0604C430.994 79.5589 432.912 86.9631 432.912 95.2727C432.912 101.132 432.006 106.432 430.195 111.173C428.438 115.914 425.881 120.148 422.525 123.877C419.222 127.606 415.227 130.908 410.54 133.785C405.852 136.714 402.097 139.804 399.274 143.053C396.451 146.249 394.4 150.058 393.121 154.479C391.843 158.9 391.151 164.413 391.044 171.018V171.977H371.868ZM382.095 219.278C378.153 219.278 374.771 217.867 371.948 215.044C369.125 212.221 367.713 208.838 367.713 204.896C367.713 200.955 369.125 197.572 371.948 194.749C374.771 191.926 378.153 190.514 382.095 190.514C386.037 190.514 389.419 191.926 392.243 194.749C395.066 197.572 396.477 200.955 396.477 204.896C396.477 207.506 395.811 209.903 394.48 212.087C393.201 214.271 391.47 216.029 389.286 217.361C387.156 218.639 384.759 219.278 382.095 219.278Z" fill="url(#paint0_linear_95_23)"/>
<defs>
<linearGradient id="paint0_linear_95_23" x1="361.5" y1="80" x2="404" y2="176.5" gradientUnits="userSpaceOnUse">
<stop stop-color="#F4602C"/>
<stop offset="1" stop-color="#81BB27"/>
</linearGradient>
</defs>
</svg>
