<svg xmlns="http://www.w3.org/2000/svg" xmlns:xlink="http://www.w3.org/1999/xlink" width="459" zoomAndPan="magnify" viewBox="0 0 344.25 374.999991" height="500" preserveAspectRatio="xMidYMid meet" version="1.0"><defs><clipPath id="31fa428c62"><path d="M 34.351562 0.40625 L 263 0.40625 L 263 374.589844 L 34.351562 374.589844 Z M 34.351562 0.40625 " clip-rule="nonzero"/></clipPath></defs><g clip-path="url(#31fa428c62)"><path fill="#000000" d="M 252.296875 306.546875 L 248.996094 303.242188 C 248.734375 303.003906 248.429688 302.847656 248.164062 302.621094 L 132.992188 187.367188 L 246.699219 73.566406 C 246.765625 73.527344 251.96875 68.953125 254.042969 66.285156 C 254.09375 66.21875 254.132812 66.152344 254.171875 66.074219 C 259.46875 59.203125 262.664062 50.613281 262.664062 41.253906 C 262.664062 30.828125 258.730469 21.351562 252.296875 14.136719 L 248.996094 10.820312 C 241.785156 4.394531 232.304688 0.445312 221.886719 0.445312 C 211.179688 0.445312 201.445312 4.621094 194.171875 11.386719 L 193.695312 11.863281 C 193.679688 11.835938 193.679688 11.824219 193.667969 11.808594 C 193.667969 11.808594 43.9375 161.453125 43.183594 162.417969 C 37.835938 169.316406 34.628906 177.957031 34.628906 187.367188 C 34.628906 196.765625 37.835938 205.394531 43.183594 212.292969 C 45.296875 215.042969 190.761719 359.992188 190.761719 359.992188 L 195.582031 364.816406 C 202.6875 370.828125 211.851562 374.476562 221.886719 374.476562 C 231.328125 374.476562 239.992188 371.238281 246.898438 365.847656 C 249.566406 363.769531 251.96875 361.367188 254.042969 358.695312 C 259.429688 351.785156 262.664062 343.113281 262.664062 333.664062 C 262.664062 323.609375 258.941406 314.488281 252.917969 307.378906 C 252.695312 307.117188 252.523438 306.8125 252.296875 306.546875 " fill-opacity="1" fill-rule="nonzero"/></g></svg>