<svg xmlns="http://www.w3.org/2000/svg" xmlns:xlink="http://www.w3.org/1999/xlink" width="500" zoomAndPan="magnify" viewBox="0 0 375 374.999991" height="500" preserveAspectRatio="xMidYMid meet" version="1.0"><path fill="#000000" d="M 75.519531 162.394531 C 105.519531 221.355469 153.75 269.582031 212.8125 299.582031 L 258.644531 253.644531 C 264.375 247.917969 272.605469 246.25 279.792969 248.542969 C 303.125 256.25 328.230469 260.417969 354.167969 260.417969 C 365.730469 260.417969 375 269.6875 375 281.25 L 375 354.167969 C 375 365.730469 365.730469 375 354.167969 375 C 158.542969 375 0 216.457031 0 20.832031 C 0 9.269531 9.375 0 20.832031 0 L 93.75 0 C 105.3125 0 114.582031 9.269531 114.582031 20.832031 C 114.582031 46.769531 118.75 71.875 126.457031 95.207031 C 128.75 102.394531 127.082031 110.625 121.355469 116.355469 Z M 75.519531 162.394531 " fill-opacity="1" fill-rule="nonzero"/></svg>