<svg width="19" height="30" viewBox="0 0 19 30" fill="none" xmlns="http://www.w3.org/2000/svg">
<path d="M6.09331 0.904297H12.8136C12.8969 0.904297 12.9803 0.906402 13.0635 0.910503C13.1467 0.914492 13.2298 0.920698 13.3128 0.928787C13.3957 0.936988 13.4785 0.947183 13.561 0.959483C13.6434 0.971673 13.7255 0.985968 13.8072 1.00215C13.889 1.01844 13.9703 1.03672 14.0512 1.057C14.132 1.07717 14.2123 1.09944 14.2921 1.1236C14.3719 1.14787 14.451 1.17391 14.5295 1.20206C14.6079 1.23009 14.6857 1.26013 14.7628 1.29204C14.8398 1.32396 14.9159 1.35764 14.9913 1.39333C15.0666 1.42901 15.1411 1.46646 15.2145 1.50569C15.288 1.54503 15.3606 1.58615 15.4321 1.62892C15.5036 1.67181 15.5739 1.71635 15.6433 1.76268C15.7126 1.809 15.7807 1.85698 15.8476 1.90662C15.9147 1.95627 15.9803 2.00758 16.0448 2.06044C16.1092 2.1133 16.1723 2.16771 16.2341 2.22378C16.2958 2.27974 16.3562 2.33714 16.4151 2.3961C16.4741 2.45505 16.5315 2.51545 16.5874 2.57717C16.6435 2.63889 16.6979 2.70206 16.7508 2.76644C16.8036 2.83094 16.855 2.89665 16.9046 2.96358C16.9542 3.03052 17.0022 3.09867 17.0485 3.16793C17.0949 3.2373 17.1394 3.30767 17.1823 3.37914C17.2251 3.45062 17.2662 3.5232 17.3055 3.59667C17.3448 3.67015 17.3822 3.74461 17.4179 3.81997C17.4536 3.89532 17.4873 3.97145 17.5192 4.04847C17.5511 4.12549 17.5811 4.20328 17.6092 4.28174C17.6373 4.36019 17.6634 4.43932 17.6876 4.5191C17.7118 4.59889 17.7341 4.67923 17.7542 4.76002C17.7745 4.84091 17.7928 4.92225 17.8091 5.00403C17.8254 5.0857 17.8395 5.16782 17.8517 5.25027C17.864 5.33271 17.8742 5.41549 17.8824 5.49838C17.8905 5.58138 17.8967 5.6645 17.9008 5.74772C17.9048 5.83094 17.9069 5.91427 17.9069 5.99761V23.9892C17.9069 24.0725 17.9048 24.1559 17.9008 24.2391C17.8967 24.3223 17.8905 24.4054 17.8824 24.4884C17.8742 24.5713 17.864 24.6541 17.8517 24.7365C17.8395 24.819 17.8254 24.9011 17.8091 24.9828C17.7928 25.0646 17.7745 25.1459 17.7542 25.2268C17.7341 25.3076 17.7118 25.3879 17.6876 25.4677C17.6634 25.5475 17.6373 25.6266 17.6092 25.7051C17.5811 25.7835 17.5511 25.8613 17.5192 25.9383C17.4873 26.0154 17.4536 26.0915 17.4179 26.1668C17.3822 26.2422 17.3448 26.3167 17.3055 26.3901C17.2662 26.4636 17.2252 26.5362 17.1823 26.6077C17.1394 26.6791 17.0949 26.7495 17.0485 26.8189C17.0022 26.8881 16.9542 26.9563 16.9046 27.0232C16.855 27.0903 16.8036 27.1559 16.7508 27.2204C16.6979 27.2847 16.6435 27.3479 16.5874 27.4096C16.5315 27.4714 16.4741 27.5318 16.4151 27.5907C16.3562 27.6497 16.2958 27.7071 16.2341 27.763C16.1723 27.8191 16.1092 27.8735 16.0448 27.9264C15.9803 27.9792 15.9147 28.0305 15.8476 28.0802C15.7807 28.1298 15.7126 28.1778 15.6433 28.2241C15.5739 28.2704 15.5036 28.315 15.4321 28.3579C15.3606 28.4007 15.288 28.4418 15.2145 28.4811C15.1411 28.5203 15.0666 28.5578 14.9913 28.5935C14.9159 28.6292 14.8398 28.6628 14.7628 28.6948C14.6857 28.7267 14.6079 28.7567 14.5295 28.7847C14.451 28.8129 14.3719 28.8389 14.2921 28.8632C14.2123 28.8874 14.132 28.9096 14.0512 28.9298C13.9703 28.9501 13.889 28.9684 13.8072 28.9847C13.7255 29.0008 13.6434 29.0151 13.561 29.0273C13.4785 29.0396 13.3957 29.0498 13.3128 29.058C13.2298 29.0661 13.1467 29.0723 13.0635 29.0764C12.9803 29.0804 12.8969 29.0825 12.8136 29.0825H6.09331C6.00998 29.0825 5.92664 29.0804 5.84342 29.0764C5.7602 29.0723 5.67709 29.0661 5.59409 29.058C5.5112 29.0498 5.42842 29.0396 5.34597 29.0273C5.26352 29.0151 5.18141 29.0008 5.09974 28.9847C5.01796 28.9684 4.93662 28.9501 4.85572 28.9298C4.77494 28.9096 4.69459 28.8874 4.61481 28.8632C4.53502 28.8389 4.4559 28.8129 4.37744 28.7847C4.29898 28.7567 4.22119 28.7267 4.14417 28.6948C4.06716 28.6628 3.99103 28.6292 3.91567 28.5935C3.84032 28.5578 3.76585 28.5203 3.69238 28.4811C3.6188 28.4418 3.54632 28.4007 3.47485 28.3579C3.40337 28.315 3.33289 28.2704 3.26363 28.2241C3.19437 28.1778 3.12622 28.1298 3.05929 28.0802C2.99224 28.0305 2.92664 27.9792 2.86215 27.9264C2.79776 27.8735 2.7346 27.8191 2.67287 27.763C2.61115 27.7071 2.55075 27.6497 2.4918 27.5907C2.43285 27.5318 2.37544 27.4714 2.31948 27.4096C2.26341 27.3479 2.209 27.2847 2.15614 27.2204C2.10328 27.1559 2.05197 27.0903 2.00233 27.0232C1.95268 26.9563 1.9047 26.8881 1.85838 26.8189C1.81206 26.7495 1.76751 26.6791 1.72462 26.6077C1.68174 26.5362 1.64074 26.4636 1.6014 26.3901C1.56217 26.3167 1.52471 26.2422 1.48903 26.1668C1.45335 26.0915 1.41966 26.0154 1.38774 25.9383C1.35583 25.8613 1.3258 25.7835 1.29776 25.7051C1.26961 25.6266 1.24357 25.5475 1.2193 25.4677C1.19515 25.3879 1.17287 25.3076 1.1527 25.2268C1.13242 25.1459 1.11414 25.0646 1.09785 24.9828C1.08156 24.9011 1.06738 24.819 1.05519 24.7365C1.04289 24.6541 1.03269 24.5713 1.02449 24.4884C1.0164 24.4054 1.0102 24.3223 1.00609 24.2391C1.00211 24.1559 1 24.0725 1 23.9892V5.99761C1 5.91427 1.00211 5.83094 1.00609 5.74772C1.0102 5.6645 1.0164 5.58138 1.02449 5.49838C1.03269 5.41549 1.04289 5.33271 1.05519 5.25027C1.06738 5.16782 1.08156 5.0857 1.09785 5.00403C1.11414 4.92225 1.13242 4.84091 1.1527 4.76002C1.17287 4.67923 1.19515 4.59889 1.2193 4.5191C1.24357 4.43932 1.26961 4.36019 1.29776 4.28174C1.3258 4.20328 1.35583 4.12549 1.38774 4.04847C1.41966 3.97145 1.45335 3.89532 1.48903 3.81997C1.52471 3.74461 1.56217 3.67015 1.6014 3.59667C1.64074 3.5232 1.68174 3.45062 1.72462 3.37914C1.76751 3.30767 1.81206 3.2373 1.85838 3.16793C1.9047 3.09867 1.95268 3.03052 2.00233 2.96358C2.05197 2.89665 2.10328 2.83094 2.15614 2.76644C2.209 2.70206 2.26341 2.63889 2.31948 2.57717C2.37544 2.51545 2.43285 2.45505 2.4918 2.3961C2.55075 2.33714 2.61115 2.27974 2.67287 2.22378C2.7346 2.16771 2.79776 2.1133 2.86215 2.06044C2.92664 2.00758 2.99224 1.95627 3.05929 1.90662C3.12622 1.85698 3.19437 1.809 3.26363 1.76268C3.33289 1.71635 3.40337 1.67181 3.47485 1.62892C3.54632 1.58615 3.6188 1.54503 3.69238 1.50569C3.76585 1.46646 3.84032 1.42901 3.91567 1.39333C3.99103 1.35764 4.06716 1.32396 4.14417 1.29204C4.22119 1.26013 4.29898 1.23009 4.37744 1.20206C4.4559 1.17391 4.53502 1.14787 4.61481 1.1236C4.69459 1.09944 4.77494 1.07717 4.85572 1.057C4.93662 1.03672 5.01796 1.01844 5.09974 1.00215C5.18141 0.985968 5.26352 0.971673 5.34597 0.959483C5.42842 0.947183 5.5112 0.936988 5.59409 0.928787C5.67709 0.920698 5.7602 0.914492 5.84342 0.910503C5.92664 0.906402 6.00998 0.904297 6.09331 0.904297Z" stroke="black" stroke-width="1.80766" stroke-linejoin="round"/>
<path d="M9.45312 8.20312V21.2145" class="interactive-path" stroke="#81BB27" stroke-width="2.21172" stroke-linecap="round"/>
<path d="M12.7695 17.3457L9.4535 21.767L6.13747 17.3457" class="interactive-path" stroke="#81BB27" stroke-width="2.21172" stroke-linecap="round" stroke-linejoin="round"/>
<path d="M6.45801 0H12.458H12.7372C13.1677 0 13.5721 0.277396 13.5825 0.707701C13.5919 1.09626 13.4768 1.5 12.958 1.5C12.7507 1.5 12.6078 1.56449 12.5116 1.66673C12.0439 2.16384 11.7531 3 11.0706 3H9.45801H7.84543C7.16288 3 6.87215 2.16384 6.40442 1.66673C6.30822 1.56449 6.16536 1.5 5.95801 1.5C5.4392 1.5 5.32413 1.09626 5.33353 0.7077C5.34393 0.277396 5.74834 0 6.17877 0H6.45801Z" fill="black"/>
</svg>
