<?xml version="1.0" encoding="UTF-8"?>
<svg id="Layer_2" data-name="Layer 2" xmlns="http://www.w3.org/2000/svg" viewBox="0 0 299.5 267.5">
  <defs>
    <style>
      .cls-1 {
        fill-rule: evenodd;
      }

      .cls-1, .cls-2 {
        fill: #006438;
      }

      .cls-3 {
        fill: #50ae2f;
      }
    </style>
  </defs>
  <g>
    <path class="cls-1" d="m83.66,91.63c0-36.77,29.79-66.58,66.55-66.63v24.08c-23.46.04-42.47,19.07-42.47,42.55s19.05,42.55,42.55,42.55,42.55-18.87,42.55-42.71l24.08.02c0,36.94-29.83,66.77-66.62,66.77s-66.63-29.83-66.63-66.63Z"/>
    <path class="cls-3" d="m120.89,91.63c0-16.32,13.23-29.56,29.56-29.56s29.55,13.23,29.55,29.56-13.23,29.55-29.55,29.55-29.56-13.23-29.56-29.55Z"/>
    <path class="cls-2" d="m170.94,54.19c0-9.36,7.58-16.94,16.94-16.94,9.36,0,16.94,7.58,16.94,16.94s-7.58,16.94-16.94,16.94c-9.35,0-16.94-7.58-16.94-16.94Z"/>
    <path class="cls-2" d="m239.12,212.68l-1.76,6.72-.28.33c-.54.22-1.04.44-1.59.6-1.28.45-3.53.79-5.62.79-7.95,0-13.14-4.85-13.14-13.31,0-7.87,5.34-17.68,17.39-17.68,1.46,0,2.87.17,4.33.45,1.12.23,1.9.49,2.56.79.65.3,1.18.63,1.79,1.01l.08.27-1.88,6.31-.33.1c-.32-.41-.64-.78-.96-1.11-1.18-1.06-3.11-1.59-4.73-1.59-5.5,0-8.88,5.6-8.88,10.87,0,5.69,3.62,7.52,6.61,7.52,3.19,0,5.14-1.46,6.1-2.23l.31.15Z"/>
    <path class="cls-3" d="m120.1,194.05l-.88,4.37c-2.09,9.52-2.87,12.59-4.68,22.04l-.39.34-5.78.17-.29-.39,2.32-9.74.68-3.19c-2.48-.05-4.96-.1-7.43-.1-1.94,0-3.42.03-4.92.07-.85,3.83-1.56,7.2-2.64,12.86l-.4.34-5.78.17-.28-.39,2.32-9.74.91-4.25c1.53-6.68,1.81-8.15,2.72-14.33l.4-.39c2.66-.34,3.28-.46,6-1.02l.28.39-.61,2.81-.88,4.37-.92,4.14c2.08.05,4.16.08,6.25.08,2.21,0,3.66-.04,6.12-.09.79-3.62,1.12-5.6,1.81-10.29l.4-.39c2.66-.34,3.29-.46,6-1.02l.28.39-.61,2.81Z"/>
    <path class="cls-3" d="m49.18,206.78c.4-1.65.68-3.3.68-4.89,0-5.75-3.7-6.71-5.8-6.71-8.93,0-10.07,13.88-10.07,15.99,0,4.55,2.73,6.54,5.81,6.54,6.09,0,8.36-6.26,9.39-10.93m5.92,1.76c-1.25,4.89-4.72,13.37-15.42,13.37-7.57,0-11.72-3.93-11.72-11.66,0-1,.08-2.11.25-3.28.03-.29.07-.58.12-.87,2.06-12.82,7.61-24.98,19.81-25.1,1.63-.02,4.92-.19,7.17-.72l-.82,5.12c-2.25.58-5.83.87-7.92.9-2.59.03-4.39,1.01-5.63,2.2-.62.59-1.09,1.23-1.46,1.82-.37.58-.63,1.12-.83,1.52,1.63-.51,3.41-.83,5.42-.83,7.45,0,11.89,4.15,11.89,11.5,0,1.99-.34,4.04-.86,6.03"/>
    <path class="cls-2" d="m255.18,203.1c3.4-3.85,6.09-7.05,9.96-12.2l.56-.28c3.95,0,4.96,0,9.25-.17l.17.56c-.68.73-4.11,4.17-4.85,4.96l-6.37,6.82c3.16,8.4,3.66,9.64,6.48,17.02l-.39.56-9.41.23-.45-.34c-.95-3.16-3.75-12.29-5.18-16.06-1.29,5.98-1.95,9.22-3.24,15.84l-.39.34-9.3.23-.23-.39,2.31-9.75.9-3.83c1.52-7.05,1.81-8.63,2.65-14.83l.45-.45c4.29-.56,5.07-.68,9.41-1.58l.39.39-.73,3.1-1.07,5.58-.92,4.25Z"/>
    <path class="cls-3" d="m79.02,213.52c-.62.51-1.25,1.08-1.87,1.47-1.47.91-3.4,1.3-4.93,1.3-5.15,0-6.62-4.36-6.62-7.08,0-.28.11-7.59,6.06-11.66,3.34-2.27,7.02-2.38,8.89-2.38.85,0,1.7.06,2.55.06l-4.08,18.29Zm10.82-22.09l-.28-.45-7.82-.06c-5.21,0-12.51.34-17.78,6.51-2.38,2.83-4.53,7.7-4.53,12.18,0,7.08,4.7,11.15,10.48,11.15,4.82,0,7.31-2.09,8.27-2.89l-.4,2.27.29.4,5.32-.11.39-.39c1.13-6.74,1.53-8.89,3.51-17.61l2.55-10.99Z"/>
    <path class="cls-3" d="m167.75,213.52c-.62.51-1.25,1.08-1.87,1.47-1.47.91-3.4,1.3-4.93,1.3-5.15,0-6.62-4.36-6.62-7.08,0-.28.11-7.59,6.06-11.66,3.34-2.27,7.02-2.38,8.89-2.38.85,0,1.7.06,2.55.06l-4.08,18.29Zm10.82-22.09l-.28-.45-7.82-.06c-5.21,0-12.52.34-17.78,6.51-2.38,2.83-4.53,7.7-4.53,12.18,0,7.08,4.7,11.15,10.48,11.15,4.81,0,7.31-2.09,8.27-2.89l-.39,2.27.28.4,5.32-.11.4-.39c1.13-6.74,1.53-8.89,3.51-17.61l2.55-10.99Z"/>
    <path class="cls-3" d="m146.64,194.53c2.27-1.93,2.55-2.15,3.11-2.66l-.17-.51h-6.51l-.62.34c-.9.96-5.71,5.95-7.7,7.87-1.86,1.8-2.65,2.54-4,3.72.32-1.45.68-3.04,1.08-4.87l.88-4.37.61-2.81-.28-.39c-2.72.57-3.34.68-6,1.02l-.4.39c-.91,6.17-1.19,7.64-2.72,14.33l-.9,4.25-2.32,9.74.28.39,5.78-.17.39-.34c1.39-7.28,2.18-10.79,3.42-16.35l3.96,8.02c2.04,4.13,2.43,4.93,3.91,8.44l.46.34,6.28-.17.34-.45-8.78-16.7,7.36-6.8c1.08-.96,1.64-1.53,2.55-2.27Z"/>
    <path class="cls-2" d="m213.28,220.7h-34.33l-.18-.25c.51-1.53.99-3.03,1.82-5.68l.09-.28.18-.61.45-.4c.72-.33,4.32-2.41,8.57-10.29,3.85-7.13,6-12.37,6-12.37l.56-.32.2.03c2.91,0,7.6.06,10.43.06,3.34,0,4.25-.06,6.97-.11l.28.34c-.53,2.53-.52,2.53-.52,2.53l-1.07,5.58-.68,3.13-.75,3.47c-.66,3.07-1.15,5.45-1.7,8.15,1.92-.02,3.32-.06,5.2-.14l.22.4-.34,1.51-.63,2.94c-.17.82-.43,2.1-.43,2.1l-.33.22Zm-8.61-23.1h-.34c-1.09,0-2.36,0-3.73.03l-3.79,7.51c-2.29,4.44-4.34,7.05-5.79,8.54l2.37.04h7.82l.75-3.17.9-3.83c.93-4.31,1.39-6.58,1.81-9.11"/>
  </g>
  <g>
    <g>
      <path class="cls-1" d="m152.32,232.34l-.9,3.98c-.28.23-.46.39-.94.51-.18.05-.37.07-.55.07-.3,0-1.37-.11-1.37-1.57,0-.78.37-1.6.73-2.04.77-.94,1.84-.95,2.71-.96h.32Zm1.45-.98l-1.71.02c-1.42.03-3.15.06-4.25,1.96-.32.54-.59,1.31-.59,2.16,0,1.55,1,2.34,2.21,2.34.84,0,1.28-.27,1.78-.56l-.16.63c-.17.7-.48,1.96-2,1.96-1.13,0-1.66-.6-1.9-.87h-.1l-.5.77v.11c.24.22.43.39.73.54.49.24,1.17.38,1.82.38.89,0,1.81-.23,2.4-.93.54-.62.73-1.49,1.03-2.82l.35-1.63c.43-1.94.54-2.43.93-3.98l-.05-.1Z"/>
      <path class="cls-1" d="m155.71,236.5l.26-1.21c.27-1.21.45-1.91.86-2.33.23-.24.51-.41.84-.41.21,0,.34.07.51.17l.12-.04.47-1.2-.04-.11c-.21-.09-.37-.15-.56-.15-.38,0-.87.24-1.27.74-.12.15-.22.3-.32.48l.27-1.07-.06-.09c-.59.12-.72.13-1.32.21l-.09.08c-.2,1.27-.24,1.59-.61,3.16l-.27,1.16-.45,1.78.06.07,1.27-.02.1-.09.22-1.15Z"/>
      <path class="cls-1" d="m163.23,234.63c-.22,1-.71,2.34-2.01,2.34-.66,0-1.24-.43-1.24-1.4,0-.45.24-3.43,2.16-3.43.45,0,1.24.21,1.24,1.44,0,.34-.06.7-.15,1.05Zm1.27.38c.11-.43.18-.87.18-1.29,0-1.57-.95-2.46-2.55-2.46-2.66,0-3.45,2.63-3.45,4.12,0,1.66.89,2.5,2.51,2.5,2.29,0,3.04-1.82,3.3-2.87Z"/>
      <path class="cls-1" d="m171.03,235.77l.29-1.33.71-3-.05-.08-1.23.06-.1.09c-.16.89-.21,1.15-.51,2.55l-.46,2.07c-.32.27-.86.71-1.66.71-.29,0-1.01-.12-1.01-1.01,0-.4.21-1.33.28-1.63.06-.23.57-2.33.67-2.75l-.06-.07-1.22.05-.09.09c-.12.66-.15.82-.34,1.65l-.28,1.2c-.2.89-.3,1.35-.3,1.84,0,1.29,1.01,1.67,1.79,1.67.65,0,1.47-.29,2.01-.77l-.15.6.06.09,1.2-.05.08-.07.37-1.88Z"/>
      <path class="cls-1" d="m174.77,232.9c.18-.17.66-.61,1.43-.61.67,0,1.39.41,1.39,1.57,0,1.42-1.12,2.97-3.21,2.97-.18,0-.33-.03-.5-.04l.89-3.89Zm.33-1.52l-.06-.09-1.31.21-.09.07c-.1.61-.16,1.04-.38,2.12-.22,1.05-.46,2.11-.7,3.15l-.24.96-.67,2.78.06.07h1.28s.09-.07.09-.07c.27-1.48.33-1.75.59-2.87.23.01.48.01.71.01.65,0,2.5,0,3.72-1.57.5-.64.82-1.56.82-2.45,0-1.55-1.03-2.44-2.2-2.44-.77,0-1.28.3-1.75.6l.12-.5Z"/>
    </g>
    <path class="cls-1" d="m128.87,234.58c-.24,1.14-.52,1.47-.66,1.65-.22.27-.55.5-.93.5-.42,0-.77-.2-.91-.61-.04-.09-.08-.26-.08-.56,0-.59.27-2.04.75-2.67.14-.17.45-.52,1.05-.52.75,0,.91.66.91,1.14,0,.4-.06.77-.13,1.09Zm2.1.48c.1-.42.17-.86.17-1.28,0-.77-.15-1.48-.8-2.07-.6-.54-1.42-.71-2.22-.71-3.32,0-3.95,3.08-3.95,4.25,0,.96.27,1.66.83,2.15.61.54,1.51.66,2.17.66.97,0,1.8-.2,2.53-.8.68-.55,1.07-1.35,1.28-2.2Z"/>
    <path class="cls-1" d="m135.41,236.29l-.08-.06c-.23.08-.41.15-.74.15-.27,0-.6-.12-.6-.52,0-.22.17-.93.24-1.21l.54-2.24,1.18.03.1-.09c.17-.6.22-.74.4-1.28l-.05-.09-1.3.03.28-1.16.28-1.06-.08-.08c-.88.26-1.14.32-2.09.54l-.09.09-.37,1.65h-.84l-.09.06-.37,1.29.08.1.89-.03-.42,1.75c-.18.71-.42,1.67-.42,2.21,0,1.15.83,1.49,1.93,1.49.44,0,.74-.06,1.15-.14l.1-.1.38-1.33Z"/>
    <path class="cls-1" d="m139.24,232.89c.27-.18.55-.37.92-.37.26,0,.95.13.95,1.2,0,.97-.46,1.86-.97,2.3-.45.37-1.05.52-1.4.52-.1,0-.21-.01-.31-.03l.82-3.63Zm.37-1.83l-.08-.09-2.18.36-.09.09c-.08.65-.13,1.02-.37,2.17-.23,1.14-.48,2.27-.74,3.42l-.23.97-.74,3,.06.09c.47-.01.86-.04,1.29-.04.29,0,.57.01.87.01l.09-.06.61-3.05c1.35,0,2.95.01,4.21-1.53.66-.8.98-1.89.98-2.81,0-1.62-.86-2.58-2.13-2.58-.83,0-1.38.38-1.71.61l.15-.56Z"/>
  </g>
</svg>