<svg xmlns="http://www.w3.org/2000/svg" xmlns:xlink="http://www.w3.org/1999/xlink" width="500" zoomAndPan="magnify" viewBox="0 0 375 374.999991" height="500" preserveAspectRatio="xMidYMid meet" version="1.0"><path fill="#000000" d="M 217.539062 180.199219 C 212.460938 208.714844 188.242188 241.84375 164.585938 241.84375 C 143.539062 241.84375 140.390625 223.484375 140.390625 212.546875 C 140.390625 167.847656 173.25 130.078125 212.117188 130.078125 C 216.609375 130.078125 220.933594 130.417969 225.082031 131.054688 C 225.496094 131.101562 225.839844 131.347656 226.082031 131.664062 C 226.328125 132.007812 226.425781 132.398438 226.351562 132.8125 Z M 264.976562 198.460938 L 283.53125 99.730469 C 283.652344 99.070312 283.308594 98.386719 282.699219 98.09375 L 276.960938 95.457031 C 260.972656 88.085938 239.558594 83.863281 218.269531 83.863281 C 146.175781 83.863281 87.507812 142.503906 87.507812 214.597656 C 87.507812 263.160156 120.101562 288.574219 152.304688 288.574219 C 178.328125 288.574219 200.351562 278.660156 218.027344 258.984375 C 218.367188 258.59375 218.90625 258.421875 219.417969 258.519531 C 219.929688 258.617188 220.371094 258.960938 220.542969 259.449219 C 223.152344 266.234375 226.71875 271.191406 230.015625 274.65625 C 238.582031 283.640625 250.742188 288.574219 264.265625 288.574219 C 314.265625 288.574219 364.851562 243.503906 364.851562 157.324219 C 364.851562 64.695312 299.742188 0 206.503906 0 C 94.664062 0 10.3125 88.523438 10.3125 205.90625 C 10.3125 303.882812 79.5 375 174.789062 375 C 212.558594 375 242 368.359375 270.273438 353.441406 L 276.546875 350.121094 C 277.207031 349.78125 277.523438 349 277.253906 348.289062 L 263.316406 310.816406 C 263.167969 310.398438 262.828125 310.082031 262.410156 309.9375 C 262.019531 309.789062 261.558594 309.8125 261.167969 310.035156 L 252.9375 314.648438 C 233.796875 325.390625 208.042969 331.324219 180.429688 331.324219 C 107.554688 331.324219 58.601562 279.6875 58.601562 202.832031 C 58.601562 110.035156 119.078125 42.675781 202.402344 42.675781 C 272.835938 42.675781 316.585938 87.769531 316.585938 160.398438 C 316.585938 192.210938 307.699219 219.164062 292.195312 234.351562 C 285.457031 240.964844 278.109375 244.773438 271.199219 244.382812 C 267.832031 244.3125 266.441406 243.113281 265.535156 241.96875 C 263.339844 239.207031 258.871094 229.441406 264.976562 198.484375 C 264.976562 198.484375 264.976562 198.484375 264.976562 198.460938 " fill-opacity="1" fill-rule="nonzero"/></svg>