<svg width="500" height="500" viewBox="0 0 500 500" fill="none" xmlns="http://www.w3.org/2000/svg">
<mask id="mask0_109_9" style="mask-type:alpha" maskUnits="userSpaceOnUse" x="0" y="0" width="500" height="500">
<path d="M271.738 423.83V379.793C271.738 367.866 262.059 358.194 250.138 358.194C238.217 358.194 228.539 367.866 228.539 379.793V423.83C228.539 435.757 238.217 445.429 250.138 445.429C262.059 445.429 271.738 435.757 271.738 423.83Z" fill="white"/>
<path d="M271.738 120.146V76.1081C271.738 64.1816 262.059 54.5093 250.138 54.5093C238.217 54.5093 228.539 64.1816 228.539 76.1081V120.146C228.539 132.072 238.217 141.745 250.138 141.745C262.059 141.745 271.738 132.072 271.738 120.146Z" fill="white"/>
<path d="M250.005 481.998V500C318.982 500.01 381.598 471.987 426.773 426.771C471.99 381.586 500.01 318.972 500 249.995C500.01 181.018 471.99 118.404 426.773 73.2187C381.598 28.0129 318.982 -0.0102426 250.005 2.8084e-06C181.029 -0.0102426 118.412 28.0129 73.2267 73.2187C28.0207 118.404 -0.010238 181.018 2.80508e-06 249.995C2.80508e-06 318.972 28.0207 381.596 73.2267 426.771C118.412 471.987 181.029 500.01 250.005 500V464.005C190.85 463.995 137.461 440.081 98.6768 401.32C59.923 362.538 36.0091 309.156 35.9989 249.995C36.0091 190.844 59.923 137.452 98.6768 98.6701C137.461 59.9193 190.85 35.9946 250.005 35.9946C309.16 35.9946 362.539 59.9193 401.323 98.6701C440.077 137.462 463.991 190.844 464.001 250.005C463.991 309.156 440.077 362.538 401.323 401.32C362.539 440.081 309.16 463.995 250.005 464.005V481.998Z" fill="white"/>
<path d="M250.138 282.967C268.358 282.967 283.136 268.192 283.136 249.964C283.136 231.736 268.358 216.972 250.138 216.972C231.919 216.972 217.14 231.736 217.14 249.964C217.13 268.192 231.908 282.967 250.138 282.967Z" fill="white"/>
<path d="M330.749 271.563H423.793C435.714 271.563 445.382 261.891 445.382 249.964C445.382 238.038 435.714 228.365 423.793 228.365H330.749C318.818 228.365 309.15 238.038 309.15 249.964C309.15 261.891 318.818 271.563 330.749 271.563Z" fill="white"/>
<path d="M388.347 357.63L357.203 326.503C348.774 318.06 335.091 318.06 326.663 326.503C318.224 334.935 318.224 348.614 326.663 357.036L357.807 388.174C366.236 396.617 379.908 396.617 388.347 388.174C396.776 379.741 396.776 366.063 388.347 357.63Z" fill="white"/>
<path d="M173.614 142.892L142.469 111.754C134.041 103.322 120.368 103.322 111.929 111.754C103.5 120.187 103.5 133.865 111.929 142.298L143.074 173.436C151.502 181.868 165.175 181.868 173.614 173.436C182.043 165.003 182.043 151.335 173.614 142.892Z" fill="white"/>
<path d="M142.469 388.174L173.614 357.036C182.043 348.603 182.043 334.935 173.614 326.503C165.175 318.06 151.502 318.06 143.074 326.503L111.929 357.64C103.5 366.073 103.5 379.741 111.929 388.174C120.368 396.617 134.041 396.617 142.469 388.174Z" fill="white"/>
<path d="M357.203 173.436L388.347 142.298C396.776 133.865 396.776 120.187 388.347 111.754C379.908 103.322 366.236 103.322 357.807 111.754L326.663 142.892C318.224 151.335 318.224 165.003 326.663 173.436C335.091 181.868 348.774 181.868 357.203 173.436Z" fill="white"/>
<path d="M286.639 285.754C286.321 286.071 285.953 286.43 285.656 286.768C265.654 306.102 233.793 305.928 214.057 286.184C204.052 276.184 199.074 263.079 199.095 249.964C199.074 236.859 204.052 223.754 214.057 213.754C233.793 194.01 265.654 193.836 285.656 213.16C285.953 213.508 286.321 213.857 286.639 214.184C294.228 221.777 306.395 221.797 313.984 214.215C321.573 206.623 321.593 194.748 314.004 187.155C313.205 186.356 312.304 185.26 311.403 184.624C276.285 151.652 221.145 152.236 186.836 186.53C174.863 198.518 166.988 213.037 163.219 228.365H76.0738C64.1425 228.365 54.4745 238.037 54.4745 249.964C54.4745 261.89 64.1425 271.563 76.0738 271.563H163.219C166.988 286.891 174.863 301.42 186.836 313.398C221.145 347.701 276.285 348.286 311.403 315.314C312.304 314.678 313.205 313.582 314.004 312.772C321.593 305.19 321.573 293.315 313.984 285.723C306.395 278.141 294.228 278.161 286.639 285.754Z" fill="white"/>
</mask>
<g mask="url(#mask0_109_9)">
<rect width="500" height="500" fill="url(#paint0_linear_109_9)"/>
</g>
<defs>
<linearGradient id="paint0_linear_109_9" x1="115.5" y1="113" x2="377.5" y2="379.5" gradientUnits="userSpaceOnUse">
<stop stop-color="#F4602C"/>
<stop offset="1" stop-color="#81BB27"/>
</linearGradient>
</defs>
</svg>
