<svg xmlns="http://www.w3.org/2000/svg" xmlns:xlink="http://www.w3.org/1999/xlink" width="500" zoomAndPan="magnify" viewBox="0 0 375 374.999991" height="500" preserveAspectRatio="xMidYMid meet" version="1.0"><path fill="#6dbbea" d="M 267.699219 60.28125 C 269.453125 61.101562 271.183594 61.976562 272.890625 62.902344 C 274.59375 63.828125 276.269531 64.804688 277.917969 65.835938 C 279.566406 66.863281 281.183594 67.945312 282.773438 69.074219 C 284.363281 70.203125 285.917969 71.382812 287.445312 72.609375 C 288.96875 73.839844 290.460938 75.113281 291.917969 76.4375 C 293.375 77.757812 294.796875 79.125 296.183594 80.539062 C 297.570312 81.953125 298.921875 83.414062 300.234375 84.914062 C 301.546875 86.417969 302.820312 87.960938 304.054688 89.550781 C 305.289062 91.136719 306.484375 92.765625 307.640625 94.433594 C 308.792969 96.101562 309.90625 97.804688 310.980469 99.550781 C 312.050781 101.296875 313.078125 103.074219 314.066406 104.894531 C 315.050781 106.710938 315.992188 108.5625 316.890625 110.445312 C 317.789062 112.332031 318.640625 114.25 319.449219 116.199219 C 320.257812 118.148438 321.019531 120.125 321.734375 122.132812 C 322.449219 124.140625 323.117188 126.175781 323.738281 128.238281 C 324.359375 130.300781 324.933594 132.390625 325.460938 134.5 C 325.984375 136.609375 326.464844 138.746094 326.894531 140.898438 C 327.320312 143.054688 327.703125 145.230469 328.035156 147.425781 C 328.367188 149.617188 328.648438 151.828125 328.882812 154.058594 C 329.113281 156.285156 329.296875 158.527344 329.433594 160.785156 C 329.566406 163.039062 329.652344 165.308594 329.683594 167.585938 C 329.71875 169.863281 329.703125 172.152344 329.640625 174.449219 C 329.574219 176.746094 329.460938 179.046875 329.296875 181.355469 C 329.132812 183.664062 328.917969 185.972656 328.65625 188.289062 C 328.390625 190.601562 328.082031 192.917969 327.71875 195.230469 C 327.355469 197.546875 326.949219 199.859375 326.488281 202.167969 C 326.03125 204.480469 325.523438 206.78125 324.96875 209.082031 C 324.414062 211.382812 323.808594 213.671875 323.160156 215.957031 C 322.507812 218.238281 321.8125 220.511719 321.070312 222.773438 C 320.324219 225.035156 319.535156 227.285156 318.699219 229.519531 C 317.867188 231.753906 316.984375 233.972656 316.0625 236.175781 C 315.136719 238.378906 314.167969 240.5625 313.15625 242.726562 C 312.144531 244.890625 311.089844 247.035156 309.992188 249.15625 C 308.894531 251.277344 307.757812 253.375 306.578125 255.449219 C 305.398438 257.523438 304.179688 259.570312 302.917969 261.589844 C 301.660156 263.613281 300.363281 265.601562 299.027344 267.566406 C 297.691406 269.527344 296.320312 271.460938 294.910156 273.359375 C 293.503906 275.261719 292.058594 277.128906 290.582031 278.960938 C 289.101562 280.792969 287.589844 282.589844 286.046875 284.351562 C 284.503906 286.113281 282.925781 287.839844 281.320312 289.523438 C 279.710938 291.210938 278.074219 292.855469 276.410156 294.460938 C 274.742188 296.066406 273.050781 297.632812 271.332031 299.152344 C 269.609375 300.675781 267.863281 302.152344 266.09375 303.589844 C 264.320312 305.023438 262.527344 306.410156 260.710938 307.753906 C 258.894531 309.097656 257.054688 310.394531 255.195312 311.644531 C 253.335938 312.894531 251.460938 314.097656 249.5625 315.25 C 247.667969 316.402344 245.753906 317.503906 243.824219 318.554688 C 241.894531 319.609375 239.949219 320.609375 237.992188 321.558594 C 236.035156 322.507812 234.066406 323.40625 232.085938 324.253906 C 230.105469 325.097656 228.113281 325.890625 226.113281 326.628906 C 224.117188 327.367188 222.109375 328.050781 220.09375 328.679688 C 218.082031 329.3125 216.0625 329.886719 214.042969 330.40625 C 212.019531 330.925781 209.996094 331.390625 207.96875 331.796875 C 205.941406 332.207031 203.914062 332.558594 201.890625 332.855469 C 199.863281 333.152344 197.839844 333.390625 195.820312 333.574219 C 193.800781 333.757812 191.785156 333.886719 189.773438 333.953125 C 187.765625 334.023438 185.761719 334.039062 183.769531 333.992188 C 181.773438 333.949219 179.789062 333.847656 177.816406 333.691406 C 175.839844 333.535156 173.878906 333.320312 171.929688 333.050781 C 169.980469 332.777344 168.046875 332.453125 166.125 332.070312 C 164.207031 331.6875 162.300781 331.246094 160.417969 330.753906 C 158.53125 330.257812 156.664062 329.707031 154.816406 329.101562 C 152.972656 328.5 151.144531 327.839844 149.34375 327.125 C 147.539062 326.410156 145.757812 325.644531 144.003906 324.824219 C 142.246094 324 140.515625 323.128906 138.8125 322.203125 C 137.109375 321.273438 135.429688 320.296875 133.78125 319.269531 C 132.132812 318.238281 130.515625 317.160156 128.925781 316.027344 C 127.339844 314.898438 125.78125 313.71875 124.257812 312.492188 C 122.730469 311.265625 121.242188 309.988281 119.78125 308.667969 C 118.324219 307.34375 116.902344 305.976562 115.515625 304.5625 C 114.128906 303.148438 112.78125 301.691406 111.46875 300.1875 C 110.15625 298.683594 108.882812 297.140625 107.648438 295.554688 C 106.410156 293.964844 105.214844 292.339844 104.0625 290.671875 C 102.90625 289.003906 101.792969 287.296875 100.722656 285.550781 C 99.652344 283.808594 98.621094 282.027344 97.636719 280.210938 C 96.648438 278.390625 95.707031 276.539062 94.808594 274.65625 C 93.914062 272.769531 93.058594 270.851562 92.253906 268.902344 C 91.445312 266.953125 90.683594 264.976562 89.96875 262.96875 C 89.253906 260.960938 88.582031 258.925781 87.960938 256.863281 C 87.339844 254.800781 86.765625 252.714844 86.242188 250.601562 C 85.714844 248.492188 85.238281 246.359375 84.808594 244.203125 C 84.378906 242.046875 84 239.871094 83.667969 237.679688 C 83.335938 235.484375 83.050781 233.273438 82.820312 231.046875 C 82.585938 228.816406 82.402344 226.574219 82.269531 224.320312 C 82.132812 222.0625 82.050781 219.796875 82.015625 217.515625 C 81.980469 215.238281 81.996094 212.949219 82.0625 210.652344 C 82.125 208.359375 82.238281 206.054688 82.402344 203.746094 C 82.570312 201.441406 82.78125 199.128906 83.046875 196.816406 C 83.308594 194.5 83.621094 192.1875 83.980469 189.871094 C 84.34375 187.554688 84.753906 185.242188 85.210938 182.933594 C 85.671875 180.625 86.179688 178.320312 86.734375 176.019531 C 87.289062 173.722656 87.890625 171.429688 88.542969 169.144531 C 89.191406 166.863281 89.886719 164.589844 90.632812 162.328125 C 91.375 160.066406 92.164062 157.820312 93 155.582031 C 93.835938 153.347656 94.714844 151.128906 95.640625 148.929688 C 96.5625 146.726562 97.53125 144.542969 98.546875 142.378906 C 99.558594 140.210938 100.613281 138.070312 101.710938 135.949219 C 102.804688 133.824219 103.945312 131.726562 105.125 129.652344 C 106.304688 127.582031 107.523438 125.53125 108.78125 123.511719 C 110.039062 121.492188 111.335938 119.5 112.671875 117.535156 C 114.007812 115.574219 115.378906 113.640625 116.789062 111.742188 C 118.195312 109.839844 119.640625 107.972656 121.117188 106.140625 C 122.597656 104.308594 124.109375 102.511719 125.652344 100.75 C 127.199219 98.988281 128.773438 97.265625 130.382812 95.578125 C 131.988281 93.894531 133.625 92.246094 135.289062 90.640625 C 136.957031 89.035156 138.648438 87.472656 140.371094 85.949219 C 142.089844 84.425781 143.835938 82.949219 145.609375 81.515625 C 147.378906 80.078125 149.171875 78.691406 150.988281 77.347656 C 152.808594 76.003906 154.644531 74.707031 156.503906 73.457031 C 158.363281 72.207031 160.242188 71.007812 162.136719 69.855469 C 164.035156 68.703125 165.949219 67.597656 167.875 66.546875 C 169.804688 65.496094 171.75 64.492188 173.707031 63.542969 C 175.664062 62.59375 177.632812 61.695312 179.613281 60.851562 C 181.59375 60.003906 183.585938 59.210938 185.585938 58.472656 C 187.585938 57.734375 189.589844 57.050781 191.605469 56.421875 C 193.617188 55.792969 195.636719 55.214844 197.660156 54.695312 C 199.683594 54.175781 201.707031 53.710938 203.734375 53.304688 C 205.757812 52.894531 207.785156 52.542969 209.8125 52.246094 C 211.835938 51.949219 213.859375 51.710938 215.882812 51.527344 C 217.902344 51.34375 219.917969 51.21875 221.925781 51.148438 C 223.9375 51.078125 225.9375 51.066406 227.933594 51.109375 C 229.925781 51.152344 231.910156 51.253906 233.886719 51.410156 C 235.859375 51.570312 237.820312 51.78125 239.773438 52.054688 C 241.722656 52.324219 243.65625 52.648438 245.574219 53.035156 C 247.496094 53.417969 249.398438 53.855469 251.285156 54.351562 C 253.167969 54.84375 255.035156 55.394531 256.882812 56 C 258.730469 56.605469 260.554688 57.261719 262.359375 57.976562 C 264.160156 58.691406 265.941406 59.460938 267.699219 60.28125 Z M 267.699219 60.28125 " fill-opacity="1" fill-rule="nonzero"/><path fill="#b3e6fa" d="M 246.132812 50.199219 C 247.886719 51.019531 249.617188 51.894531 251.320312 52.820312 C 253.027344 53.746094 254.703125 54.722656 256.351562 55.753906 C 258 56.78125 259.617188 57.863281 261.207031 58.992188 C 262.796875 60.121094 264.351562 61.300781 265.875 62.527344 C 267.402344 63.753906 268.894531 65.03125 270.351562 66.351562 C 271.808594 67.675781 273.230469 69.042969 274.617188 70.457031 C 276.003906 71.871094 277.351562 73.332031 278.664062 74.832031 C 279.976562 76.335938 281.25 77.878906 282.488281 79.46875 C 283.722656 81.054688 284.917969 82.679688 286.070312 84.347656 C 287.226562 86.015625 288.339844 87.722656 289.410156 89.46875 C 290.484375 91.210938 291.511719 92.992188 292.496094 94.8125 C 293.484375 96.628906 294.425781 98.480469 295.324219 100.363281 C 296.222656 102.25 297.074219 104.167969 297.882812 106.117188 C 298.6875 108.066406 299.449219 110.042969 300.164062 112.050781 C 300.882812 114.058594 301.550781 116.09375 302.171875 118.15625 C 302.792969 120.21875 303.367188 122.304688 303.890625 124.417969 C 304.417969 126.527344 304.894531 128.664062 305.324219 130.816406 C 305.753906 132.972656 306.136719 135.148438 306.46875 137.34375 C 306.796875 139.535156 307.082031 141.746094 307.3125 143.976562 C 307.546875 146.203125 307.730469 148.445312 307.863281 150.703125 C 308 152.957031 308.082031 155.226562 308.117188 157.503906 C 308.152344 159.78125 308.136719 162.070312 308.074219 164.367188 C 308.007812 166.664062 307.894531 168.964844 307.730469 171.273438 C 307.566406 173.582031 307.351562 175.890625 307.089844 178.207031 C 306.824219 180.519531 306.511719 182.835938 306.152344 185.148438 C 305.789062 187.464844 305.378906 189.777344 304.921875 192.085938 C 304.460938 194.394531 303.957031 196.699219 303.398438 199 C 302.84375 201.300781 302.242188 203.589844 301.59375 205.875 C 300.941406 208.15625 300.246094 210.429688 299.5 212.691406 C 298.757812 214.953125 297.96875 217.203125 297.132812 219.4375 C 296.296875 221.671875 295.417969 223.890625 294.492188 226.09375 C 293.570312 228.292969 292.601562 230.476562 291.589844 232.644531 C 290.578125 234.808594 289.523438 236.949219 288.425781 239.074219 C 287.328125 241.195312 286.1875 243.292969 285.007812 245.367188 C 283.832031 247.441406 282.609375 249.488281 281.351562 251.507812 C 280.09375 253.527344 278.796875 255.519531 277.460938 257.484375 C 276.125 259.445312 274.753906 261.378906 273.34375 263.277344 C 271.9375 265.179688 270.492188 267.046875 269.015625 268.878906 C 267.535156 270.710938 266.023438 272.507812 264.480469 274.269531 C 262.933594 276.03125 261.359375 277.757812 259.753906 279.441406 C 258.144531 281.128906 256.507812 282.773438 254.84375 284.378906 C 253.175781 285.984375 251.484375 287.546875 249.761719 289.070312 C 248.042969 290.59375 246.296875 292.070312 244.527344 293.503906 C 242.753906 294.941406 240.960938 296.328125 239.144531 297.671875 C 237.328125 299.015625 235.488281 300.3125 233.628906 301.5625 C 231.769531 302.8125 229.890625 304.011719 227.996094 305.164062 C 226.097656 306.320312 224.1875 307.421875 222.257812 308.472656 C 220.328125 309.527344 218.382812 310.527344 216.425781 311.476562 C 214.46875 312.425781 212.5 313.324219 210.519531 314.171875 C 208.539062 315.015625 206.546875 315.808594 204.546875 316.546875 C 202.546875 317.285156 200.542969 317.96875 198.527344 318.597656 C 196.515625 319.230469 194.496094 319.804688 192.472656 320.324219 C 190.453125 320.84375 188.425781 321.308594 186.402344 321.714844 C 184.375 322.125 182.347656 322.476562 180.320312 322.773438 C 178.296875 323.070312 176.273438 323.308594 174.253906 323.492188 C 172.230469 323.675781 170.21875 323.800781 168.207031 323.871094 C 166.199219 323.941406 164.195312 323.957031 162.199219 323.910156 C 160.207031 323.867188 158.222656 323.765625 156.246094 323.609375 C 154.273438 323.453125 152.3125 323.238281 150.363281 322.96875 C 148.414062 322.695312 146.476562 322.371094 144.558594 321.988281 C 142.636719 321.605469 140.734375 321.164062 138.851562 320.671875 C 136.964844 320.175781 135.097656 319.625 133.25 319.019531 C 131.402344 318.417969 129.578125 317.757812 127.773438 317.042969 C 125.972656 316.328125 124.191406 315.5625 122.433594 314.738281 C 120.679688 313.917969 118.949219 313.046875 117.246094 312.117188 C 115.539062 311.191406 113.863281 310.214844 112.214844 309.183594 C 110.566406 308.15625 108.949219 307.078125 107.359375 305.945312 C 105.769531 304.816406 104.214844 303.636719 102.691406 302.410156 C 101.164062 301.183594 99.671875 299.90625 98.214844 298.585938 C 96.757812 297.261719 95.335938 295.894531 93.949219 294.480469 C 92.5625 293.066406 91.214844 291.605469 89.902344 290.105469 C 88.589844 288.601562 87.316406 287.058594 86.078125 285.472656 C 84.84375 283.882812 83.648438 282.257812 82.496094 280.589844 C 81.339844 278.921875 80.226562 277.214844 79.15625 275.46875 C 78.082031 273.726562 77.054688 271.945312 76.070312 270.128906 C 75.082031 268.308594 74.140625 266.457031 73.242188 264.574219 C 72.34375 262.6875 71.492188 260.769531 70.683594 258.820312 C 69.878906 256.871094 69.117188 254.894531 68.402344 252.886719 C 67.683594 250.878906 67.015625 248.84375 66.394531 246.78125 C 65.773438 244.71875 65.199219 242.632812 64.675781 240.519531 C 64.148438 238.410156 63.671875 236.277344 63.242188 234.121094 C 62.8125 231.964844 62.429688 229.789062 62.097656 227.597656 C 61.769531 225.402344 61.484375 223.191406 61.253906 220.960938 C 61.019531 218.734375 60.835938 216.492188 60.703125 214.238281 C 60.566406 211.980469 60.484375 209.714844 60.449219 207.433594 C 60.414062 205.15625 60.429688 202.867188 60.492188 200.570312 C 60.558594 198.273438 60.671875 195.972656 60.835938 193.664062 C 61 191.355469 61.214844 189.046875 61.476562 186.730469 C 61.742188 184.417969 62.054688 182.101562 62.414062 179.789062 C 62.777344 177.472656 63.1875 175.160156 63.644531 172.851562 C 64.105469 170.542969 64.609375 168.238281 65.167969 165.9375 C 65.722656 163.636719 66.324219 161.347656 66.972656 159.0625 C 67.625 156.78125 68.320312 154.507812 69.066406 152.246094 C 69.808594 149.984375 70.597656 147.734375 71.433594 145.5 C 72.269531 143.265625 73.148438 141.046875 74.074219 138.84375 C 74.996094 136.644531 75.964844 134.460938 76.976562 132.292969 C 77.988281 130.128906 79.042969 127.988281 80.140625 125.863281 C 81.238281 123.742188 82.378906 121.644531 83.558594 119.570312 C 84.734375 117.496094 85.957031 115.449219 87.214844 113.429688 C 88.472656 111.410156 89.769531 109.417969 91.105469 107.453125 C 92.441406 105.492188 93.8125 103.558594 95.222656 101.660156 C 96.628906 99.757812 98.074219 97.890625 99.550781 96.058594 C 101.03125 94.226562 102.542969 92.429688 104.085938 90.667969 C 105.632812 88.90625 107.207031 87.183594 108.8125 85.496094 C 110.421875 83.808594 112.058594 82.164062 113.722656 80.558594 C 115.390625 78.953125 117.082031 77.390625 118.804688 75.867188 C 120.523438 74.34375 122.269531 72.867188 124.039062 71.433594 C 125.8125 69.996094 127.605469 68.609375 129.421875 67.265625 C 131.238281 65.921875 133.078125 64.625 134.9375 63.375 C 136.796875 62.125 138.675781 60.925781 140.570312 59.773438 C 142.46875 58.621094 144.378906 57.515625 146.308594 56.464844 C 148.238281 55.410156 150.183594 54.410156 152.140625 53.460938 C 154.097656 52.511719 156.066406 51.613281 158.046875 50.769531 C 160.027344 49.921875 162.019531 49.128906 164.019531 48.390625 C 166.019531 47.652344 168.023438 46.96875 170.039062 46.339844 C 172.050781 45.710938 174.070312 45.132812 176.09375 44.613281 C 178.113281 44.09375 180.140625 43.628906 182.164062 43.222656 C 184.191406 42.8125 186.21875 42.460938 188.246094 42.164062 C 190.269531 41.867188 192.292969 41.628906 194.3125 41.445312 C 196.335938 41.261719 198.347656 41.136719 200.359375 41.066406 C 202.367188 40.996094 204.371094 40.984375 206.367188 41.027344 C 208.359375 41.070312 210.34375 41.171875 212.320312 41.328125 C 214.292969 41.484375 216.253906 41.699219 218.203125 41.96875 C 220.152344 42.242188 222.089844 42.566406 224.007812 42.949219 C 225.929688 43.332031 227.832031 43.773438 229.714844 44.265625 C 231.601562 44.761719 233.46875 45.3125 235.316406 45.917969 C 237.164062 46.523438 238.988281 47.179688 240.792969 47.894531 C 242.59375 48.609375 244.375 49.375 246.132812 50.199219 Z M 246.132812 50.199219 " fill-opacity="1" fill-rule="nonzero"/><path fill="#e48e1e" d="M 232.121094 80.164062 C 233.476562 80.796875 234.816406 81.472656 236.136719 82.191406 C 237.453125 82.90625 238.75 83.664062 240.023438 84.460938 C 241.300781 85.253906 242.550781 86.089844 243.78125 86.964844 C 245.007812 87.839844 246.214844 88.75 247.394531 89.699219 C 248.574219 90.648438 249.726562 91.636719 250.851562 92.660156 C 251.980469 93.679688 253.082031 94.738281 254.152344 95.832031 C 255.226562 96.925781 256.269531 98.054688 257.285156 99.21875 C 258.300781 100.378906 259.285156 101.574219 260.242188 102.800781 C 261.195312 104.027344 262.121094 105.289062 263.011719 106.578125 C 263.90625 107.867188 264.769531 109.1875 265.597656 110.535156 C 266.425781 111.886719 267.222656 113.265625 267.984375 114.667969 C 268.746094 116.074219 269.476562 117.507812 270.167969 118.964844 C 270.863281 120.421875 271.523438 121.90625 272.148438 123.414062 C 272.773438 124.921875 273.363281 126.453125 273.914062 128.003906 C 274.46875 129.558594 274.984375 131.132812 275.464844 132.726562 C 275.945312 134.320312 276.390625 135.9375 276.796875 137.570312 C 277.203125 139.203125 277.574219 140.851562 277.90625 142.519531 C 278.238281 144.1875 278.53125 145.867188 278.789062 147.566406 C 279.046875 149.261719 279.265625 150.972656 279.445312 152.695312 C 279.625 154.417969 279.765625 156.152344 279.871094 157.898438 C 279.972656 159.644531 280.039062 161.398438 280.066406 163.160156 C 280.09375 164.921875 280.082031 166.691406 280.03125 168.46875 C 279.980469 170.246094 279.890625 172.023438 279.765625 173.808594 C 279.636719 175.59375 279.472656 177.382812 279.269531 179.171875 C 279.066406 180.960938 278.824219 182.753906 278.546875 184.542969 C 278.265625 186.332031 277.949219 188.121094 277.59375 189.910156 C 277.238281 191.695312 276.847656 193.476562 276.417969 195.257812 C 275.988281 197.035156 275.523438 198.808594 275.019531 200.574219 C 274.515625 202.339844 273.976562 204.097656 273.402344 205.847656 C 272.828125 207.59375 272.214844 209.335938 271.570312 211.0625 C 270.925781 212.792969 270.242188 214.507812 269.527344 216.210938 C 268.8125 217.914062 268.0625 219.601562 267.28125 221.277344 C 266.5 222.953125 265.683594 224.609375 264.835938 226.25 C 263.984375 227.890625 263.105469 229.515625 262.191406 231.117188 C 261.28125 232.722656 260.335938 234.304688 259.363281 235.867188 C 258.390625 237.433594 257.386719 238.972656 256.355469 240.492188 C 255.320312 242.007812 254.261719 243.503906 253.171875 244.972656 C 252.082031 246.441406 250.964844 247.886719 249.820312 249.304688 C 248.679688 250.722656 247.507812 252.113281 246.3125 253.476562 C 245.121094 254.835938 243.898438 256.171875 242.65625 257.472656 C 241.414062 258.777344 240.148438 260.050781 238.859375 261.292969 C 237.570312 262.535156 236.261719 263.746094 234.929688 264.921875 C 233.601562 266.097656 232.25 267.242188 230.878906 268.351562 C 229.511719 269.460938 228.121094 270.535156 226.71875 271.574219 C 225.3125 272.613281 223.890625 273.617188 222.453125 274.585938 C 221.015625 275.550781 219.5625 276.480469 218.09375 277.371094 C 216.628906 278.261719 215.148438 279.113281 213.65625 279.929688 C 212.164062 280.742188 210.660156 281.515625 209.144531 282.253906 C 207.632812 282.988281 206.109375 283.679688 204.578125 284.335938 C 203.042969 284.988281 201.503906 285.601562 199.957031 286.171875 C 198.410156 286.742188 196.859375 287.273438 195.300781 287.761719 C 193.746094 288.246094 192.183594 288.691406 190.621094 289.09375 C 189.054688 289.496094 187.488281 289.855469 185.921875 290.171875 C 184.355469 290.488281 182.785156 290.761719 181.21875 290.988281 C 179.652344 291.21875 178.089844 291.402344 176.527344 291.546875 C 174.964844 291.6875 173.40625 291.785156 171.851562 291.839844 C 170.296875 291.894531 168.746094 291.902344 167.203125 291.867188 C 165.660156 291.835938 164.125 291.757812 162.597656 291.636719 C 161.074219 291.515625 159.554688 291.347656 158.046875 291.140625 C 156.539062 290.929688 155.042969 290.675781 153.558594 290.378906 C 152.074219 290.085938 150.601562 289.746094 149.144531 289.363281 C 147.683594 288.980469 146.242188 288.554688 144.8125 288.085938 C 143.382812 287.617188 141.972656 287.109375 140.578125 286.554688 C 139.179688 286.003906 137.804688 285.410156 136.445312 284.773438 C 135.089844 284.140625 133.75 283.464844 132.429688 282.746094 C 131.113281 282.03125 129.816406 281.273438 128.542969 280.480469 C 127.265625 279.683594 126.015625 278.847656 124.785156 277.972656 C 123.558594 277.101562 122.351562 276.1875 121.171875 275.238281 C 119.992188 274.289062 118.839844 273.300781 117.714844 272.28125 C 116.585938 271.257812 115.484375 270.199219 114.414062 269.105469 C 113.339844 268.011719 112.296875 266.882812 111.28125 265.71875 C 110.265625 264.558594 109.28125 263.363281 108.324219 262.136719 C 107.371094 260.910156 106.445312 259.648438 105.554688 258.359375 C 104.660156 257.070312 103.796875 255.75 102.96875 254.402344 C 102.140625 253.050781 101.34375 251.675781 100.582031 250.269531 C 99.820312 248.863281 99.089844 247.429688 98.398438 245.972656 C 97.703125 244.515625 97.042969 243.03125 96.417969 241.523438 C 95.792969 240.015625 95.203125 238.484375 94.652344 236.933594 C 94.097656 235.378906 93.582031 233.804688 93.101562 232.210938 C 92.621094 230.617188 92.175781 229 91.769531 227.367188 C 91.363281 225.734375 90.992188 224.085938 90.660156 222.417969 C 90.328125 220.75 90.035156 219.070312 89.777344 217.371094 C 89.519531 215.675781 89.300781 213.964844 89.121094 212.242188 C 88.941406 210.519531 88.800781 208.785156 88.695312 207.039062 C 88.59375 205.292969 88.527344 203.539062 88.5 201.777344 C 88.472656 200.015625 88.484375 198.246094 88.535156 196.46875 C 88.585938 194.695312 88.675781 192.914062 88.800781 191.128906 C 88.929688 189.34375 89.09375 187.554688 89.296875 185.765625 C 89.5 183.976562 89.742188 182.183594 90.019531 180.394531 C 90.300781 178.605469 90.617188 176.816406 90.972656 175.03125 C 91.328125 173.242188 91.71875 171.460938 92.148438 169.683594 C 92.578125 167.902344 93.042969 166.132812 93.546875 164.363281 C 94.050781 162.597656 94.589844 160.839844 95.164062 159.09375 C 95.738281 157.34375 96.351562 155.605469 96.996094 153.875 C 97.640625 152.148438 98.324219 150.429688 99.039062 148.726562 C 99.753906 147.023438 100.503906 145.335938 101.285156 143.660156 C 102.066406 141.984375 102.882812 140.328125 103.730469 138.6875 C 104.582031 137.046875 105.460938 135.421875 106.375 133.820312 C 107.285156 132.214844 108.230469 130.632812 109.203125 129.070312 C 110.175781 127.507812 111.179688 125.964844 112.210938 124.445312 C 113.246094 122.929688 114.304688 121.433594 115.394531 119.964844 C 116.484375 118.496094 117.601562 117.050781 118.746094 115.632812 C 119.886719 114.214844 121.058594 112.824219 122.253906 111.464844 C 123.445312 110.101562 124.667969 108.765625 125.910156 107.464844 C 127.152344 106.160156 128.417969 104.886719 129.707031 103.644531 C 130.996094 102.402344 132.304688 101.191406 133.636719 100.015625 C 134.964844 98.839844 136.316406 97.695312 137.6875 96.585938 C 139.054688 95.476562 140.445312 94.402344 141.847656 93.363281 C 143.253906 92.324219 144.675781 91.320312 146.113281 90.355469 C 147.550781 89.386719 149.003906 88.457031 150.472656 87.566406 C 151.9375 86.675781 153.417969 85.824219 154.910156 85.007812 C 156.402344 84.195312 157.90625 83.421875 159.421875 82.6875 C 160.933594 81.949219 162.457031 81.257812 163.988281 80.601562 C 165.523438 79.949219 167.0625 79.335938 168.609375 78.765625 C 170.15625 78.195312 171.707031 77.664062 173.265625 77.175781 C 174.820312 76.691406 176.382812 76.246094 177.945312 75.84375 C 179.511719 75.441406 181.078125 75.082031 182.644531 74.765625 C 184.210938 74.449219 185.78125 74.175781 187.347656 73.949219 C 188.914062 73.71875 190.476562 73.535156 192.039062 73.390625 C 193.601562 73.25 195.160156 73.152344 196.714844 73.097656 C 198.269531 73.042969 199.820312 73.035156 201.363281 73.070312 C 202.90625 73.101562 204.441406 73.179688 205.96875 73.300781 C 207.492188 73.425781 209.011719 73.589844 210.519531 73.800781 C 212.027344 74.007812 213.523438 74.261719 215.007812 74.558594 C 216.492188 74.851562 217.964844 75.191406 219.421875 75.574219 C 220.882812 75.957031 222.324219 76.382812 223.753906 76.851562 C 225.183594 77.320312 226.59375 77.828125 227.988281 78.382812 C 229.386719 78.933594 230.761719 79.527344 232.121094 80.164062 Z M 232.121094 80.164062 " fill-opacity="1" fill-rule="nonzero"/><path fill="#b3e6fa" d="M 216.59375 113.367188 C 217.511719 113.792969 218.417969 114.25 219.308594 114.734375 C 220.195312 115.21875 221.074219 115.730469 221.933594 116.265625 C 222.796875 116.804688 223.640625 117.371094 224.472656 117.960938 C 225.300781 118.550781 226.113281 119.164062 226.910156 119.808594 C 227.707031 120.449219 228.488281 121.113281 229.25 121.804688 C 230.011719 122.496094 230.753906 123.210938 231.476562 123.949219 C 232.203125 124.6875 232.90625 125.449219 233.59375 126.234375 C 234.277344 127.019531 234.945312 127.828125 235.589844 128.65625 C 236.234375 129.484375 236.859375 130.335938 237.460938 131.207031 C 238.066406 132.078125 238.648438 132.96875 239.207031 133.882812 C 239.765625 134.792969 240.304688 135.722656 240.820312 136.671875 C 241.335938 137.621094 241.828125 138.589844 242.296875 139.574219 C 242.765625 140.558594 243.210938 141.5625 243.632812 142.578125 C 244.054688 143.597656 244.453125 144.632812 244.824219 145.679688 C 245.199219 146.730469 245.546875 147.792969 245.871094 148.871094 C 246.199219 149.949219 246.496094 151.039062 246.773438 152.140625 C 247.046875 153.242188 247.296875 154.359375 247.519531 155.484375 C 247.746094 156.609375 247.945312 157.746094 248.117188 158.894531 C 248.289062 160.039062 248.4375 161.195312 248.558594 162.359375 C 248.683594 163.523438 248.777344 164.695312 248.847656 165.871094 C 248.917969 167.050781 248.960938 168.234375 248.980469 169.425781 C 249 170.617188 248.988281 171.8125 248.957031 173.011719 C 248.921875 174.210938 248.863281 175.414062 248.777344 176.621094 C 248.691406 177.824219 248.578125 179.03125 248.441406 180.242188 C 248.304688 181.449219 248.140625 182.660156 247.953125 183.871094 C 247.765625 185.078125 247.550781 186.285156 247.308594 187.492188 C 247.070312 188.699219 246.804688 189.90625 246.515625 191.105469 C 246.226562 192.308594 245.910156 193.503906 245.570312 194.695312 C 245.230469 195.890625 244.867188 197.078125 244.480469 198.257812 C 244.089844 199.441406 243.679688 200.613281 243.242188 201.78125 C 242.804688 202.949219 242.34375 204.109375 241.863281 205.261719 C 241.378906 206.410156 240.875 207.550781 240.34375 208.683594 C 239.816406 209.8125 239.265625 210.933594 238.691406 212.042969 C 238.117188 213.148438 237.523438 214.246094 236.90625 215.328125 C 236.292969 216.414062 235.652344 217.480469 234.996094 218.539062 C 234.339844 219.59375 233.660156 220.632812 232.964844 221.660156 C 232.265625 222.683594 231.550781 223.695312 230.8125 224.6875 C 230.078125 225.679688 229.324219 226.65625 228.550781 227.613281 C 227.777344 228.570312 226.988281 229.511719 226.183594 230.429688 C 225.375 231.351562 224.550781 232.25 223.710938 233.132812 C 222.871094 234.011719 222.015625 234.871094 221.148438 235.710938 C 220.277344 236.550781 219.390625 237.367188 218.492188 238.164062 C 217.59375 238.957031 216.683594 239.730469 215.757812 240.480469 C 214.832031 241.230469 213.894531 241.953125 212.945312 242.65625 C 211.996094 243.359375 211.035156 244.035156 210.0625 244.6875 C 209.09375 245.339844 208.113281 245.96875 207.121094 246.570312 C 206.128906 247.171875 205.128906 247.75 204.121094 248.300781 C 203.113281 248.847656 202.097656 249.371094 201.078125 249.867188 C 200.054688 250.363281 199.023438 250.832031 197.988281 251.273438 C 196.957031 251.714844 195.914062 252.128906 194.871094 252.515625 C 193.824219 252.902344 192.777344 253.257812 191.726562 253.589844 C 190.675781 253.917969 189.621094 254.21875 188.5625 254.488281 C 187.507812 254.761719 186.449219 255.003906 185.390625 255.21875 C 184.332031 255.429688 183.273438 255.613281 182.214844 255.769531 C 181.15625 255.925781 180.097656 256.050781 179.042969 256.144531 C 177.988281 256.242188 176.933594 256.308594 175.882812 256.34375 C 174.835938 256.378906 173.789062 256.386719 172.746094 256.363281 C 171.703125 256.339844 170.667969 256.289062 169.636719 256.207031 C 168.605469 256.125 167.578125 256.011719 166.5625 255.871094 C 165.542969 255.730469 164.53125 255.558594 163.53125 255.359375 C 162.527344 255.160156 161.53125 254.929688 160.546875 254.671875 C 159.5625 254.414062 158.585938 254.125 157.621094 253.808594 C 156.65625 253.492188 155.703125 253.148438 154.761719 252.777344 C 153.820312 252.402344 152.890625 252 151.972656 251.574219 C 151.054688 251.144531 150.148438 250.6875 149.257812 250.203125 C 148.371094 249.71875 147.492188 249.207031 146.632812 248.671875 C 145.769531 248.132812 144.925781 247.570312 144.09375 246.976562 C 143.265625 246.386719 142.453125 245.773438 141.65625 245.128906 C 140.859375 244.488281 140.078125 243.824219 139.316406 243.132812 C 138.554688 242.441406 137.8125 241.726562 137.089844 240.988281 C 136.363281 240.25 135.660156 239.488281 134.972656 238.703125 C 134.289062 237.917969 133.621094 237.109375 132.976562 236.28125 C 132.332031 235.453125 131.707031 234.601562 131.105469 233.730469 C 130.5 232.859375 129.917969 231.96875 129.359375 231.054688 C 128.800781 230.144531 128.261719 229.214844 127.746094 228.265625 C 127.230469 227.316406 126.738281 226.347656 126.269531 225.363281 C 125.800781 224.378906 125.355469 223.375 124.933594 222.359375 C 124.511719 221.339844 124.113281 220.304688 123.742188 219.257812 C 123.367188 218.207031 123.019531 217.144531 122.695312 216.066406 C 122.367188 214.992188 122.070312 213.898438 121.792969 212.796875 C 121.519531 211.695312 121.269531 210.578125 121.046875 209.453125 C 120.820312 208.328125 120.621094 207.191406 120.449219 206.042969 C 120.277344 204.898438 120.128906 203.742188 120.007812 202.578125 C 119.882812 201.414062 119.789062 200.242188 119.71875 199.066406 C 119.648438 197.886719 119.605469 196.703125 119.585938 195.511719 C 119.566406 194.320312 119.578125 193.125 119.609375 191.925781 C 119.644531 190.726562 119.703125 189.523438 119.789062 188.316406 C 119.875 187.113281 119.988281 185.90625 120.125 184.695312 C 120.261719 183.488281 120.425781 182.277344 120.613281 181.066406 C 120.800781 179.859375 121.015625 178.652344 121.257812 177.445312 C 121.496094 176.238281 121.761719 175.035156 122.050781 173.832031 C 122.339844 172.628906 122.65625 171.433594 122.996094 170.242188 C 123.335938 169.046875 123.699219 167.859375 124.085938 166.679688 C 124.476562 165.496094 124.886719 164.324219 125.324219 163.15625 C 125.761719 161.988281 126.222656 160.828125 126.703125 159.679688 C 127.1875 158.527344 127.691406 157.386719 128.222656 156.253906 C 128.75 155.125 129.300781 154.003906 129.875 152.898438 C 130.449219 151.789062 131.042969 150.691406 131.660156 149.609375 C 132.273438 148.523438 132.914062 147.457031 133.570312 146.398438 C 134.226562 145.34375 134.90625 144.304688 135.601562 143.277344 C 136.300781 142.253906 137.015625 141.242188 137.753906 140.25 C 138.488281 139.257812 139.242188 138.28125 140.015625 137.324219 C 140.789062 136.367188 141.578125 135.429688 142.382812 134.507812 C 143.191406 133.585938 144.015625 132.6875 144.855469 131.804688 C 145.695312 130.925781 146.550781 130.066406 147.417969 129.226562 C 148.289062 128.386719 149.175781 127.570312 150.074219 126.777344 C 150.972656 125.980469 151.882812 125.207031 152.808594 124.457031 C 153.734375 123.710938 154.671875 122.984375 155.621094 122.28125 C 156.570312 121.578125 157.53125 120.902344 158.503906 120.25 C 159.472656 119.597656 160.453125 118.96875 161.445312 118.367188 C 162.4375 117.765625 163.4375 117.1875 164.445312 116.640625 C 165.453125 116.089844 166.46875 115.566406 167.488281 115.070312 C 168.511719 114.574219 169.542969 114.105469 170.578125 113.664062 C 171.609375 113.222656 172.652344 112.808594 173.695312 112.421875 C 174.742188 112.035156 175.789062 111.679688 176.839844 111.347656 C 177.890625 111.019531 178.945312 110.71875 180.003906 110.449219 C 181.058594 110.175781 182.117188 109.933594 183.175781 109.71875 C 184.234375 109.507812 185.292969 109.324219 186.351562 109.167969 C 187.410156 109.011719 188.46875 108.886719 189.523438 108.792969 C 190.578125 108.695312 191.632812 108.628906 192.679688 108.59375 C 193.730469 108.558594 194.777344 108.550781 195.820312 108.574219 C 196.863281 108.597656 197.898438 108.648438 198.929688 108.730469 C 199.960938 108.8125 200.988281 108.925781 202.003906 109.066406 C 203.023438 109.207031 204.035156 109.378906 205.035156 109.578125 C 206.039062 109.777344 207.035156 110.007812 208.019531 110.265625 C 209.003906 110.523438 209.980469 110.8125 210.945312 111.128906 C 211.910156 111.445312 212.863281 111.789062 213.804688 112.164062 C 214.746094 112.535156 215.675781 112.9375 216.59375 113.367188 Z M 216.59375 113.367188 " fill-opacity="1" fill-rule="nonzero"/><path fill="#e48e1e" d="M 198.800781 151.425781 C 199.625 151.808594 200.421875 152.246094 201.199219 152.726562 C 201.972656 153.210938 202.714844 153.742188 203.433594 154.320312 C 204.148438 154.894531 204.832031 155.515625 205.484375 156.179688 C 206.136719 156.84375 206.75 157.546875 207.332031 158.292969 C 207.910156 159.039062 208.453125 159.820312 208.957031 160.640625 C 209.457031 161.460938 209.921875 162.3125 210.34375 163.199219 C 210.765625 164.082031 211.144531 165 211.480469 165.941406 C 211.816406 166.882812 212.105469 167.851562 212.355469 168.84375 C 212.601562 169.835938 212.800781 170.847656 212.957031 171.875 C 213.113281 172.90625 213.222656 173.953125 213.285156 175.011719 C 213.347656 176.070312 213.363281 177.140625 213.335938 178.21875 C 213.304688 179.296875 213.226562 180.378906 213.101562 181.46875 C 212.980469 182.554688 212.808594 183.640625 212.59375 184.726562 C 212.378906 185.808594 212.117188 186.886719 211.8125 187.960938 C 211.507812 189.035156 211.160156 190.09375 210.765625 191.144531 C 210.375 192.195312 209.941406 193.226562 209.464844 194.242188 C 208.988281 195.261719 208.476562 196.253906 207.921875 197.230469 C 207.367188 198.203125 206.777344 199.152344 206.148438 200.074219 C 205.523438 200.996094 204.863281 201.886719 204.167969 202.75 C 203.472656 203.609375 202.75 204.433594 201.992188 205.226562 C 201.238281 206.019531 200.457031 206.773438 199.648438 207.488281 C 198.839844 208.203125 198.011719 208.875 197.15625 209.507812 C 196.304688 210.136719 195.429688 210.722656 194.539062 211.265625 C 193.648438 211.804688 192.746094 212.300781 191.824219 212.746094 C 190.90625 213.191406 189.976562 213.589844 189.039062 213.9375 C 188.097656 214.28125 187.152344 214.578125 186.203125 214.824219 C 185.253906 215.066406 184.304688 215.257812 183.351562 215.398438 C 182.402344 215.535156 181.453125 215.625 180.507812 215.65625 C 179.566406 215.6875 178.628906 215.667969 177.703125 215.59375 C 176.773438 215.519531 175.859375 215.394531 174.960938 215.214844 C 174.058594 215.035156 173.171875 214.800781 172.304688 214.519531 C 171.4375 214.234375 170.59375 213.898438 169.765625 213.511719 C 168.941406 213.128906 168.144531 212.691406 167.371094 212.210938 C 166.59375 211.726562 165.851562 211.195312 165.132812 210.621094 C 164.417969 210.042969 163.734375 209.421875 163.082031 208.757812 C 162.429688 208.09375 161.816406 207.390625 161.234375 206.644531 C 160.65625 205.898438 160.113281 205.117188 159.609375 204.296875 C 159.109375 203.476562 158.644531 202.625 158.222656 201.738281 C 157.800781 200.855469 157.421875 199.941406 157.085938 198.996094 C 156.75 198.054688 156.460938 197.085938 156.210938 196.09375 C 155.964844 195.101562 155.765625 194.09375 155.609375 193.0625 C 155.453125 192.03125 155.34375 190.984375 155.28125 189.925781 C 155.21875 188.867188 155.203125 187.796875 155.230469 186.71875 C 155.261719 185.640625 155.339844 184.558594 155.464844 183.472656 C 155.585938 182.382812 155.757812 181.296875 155.972656 180.214844 C 156.1875 179.128906 156.449219 178.050781 156.753906 176.976562 C 157.058594 175.90625 157.40625 174.84375 157.800781 173.792969 C 158.191406 172.746094 158.625 171.710938 159.101562 170.695312 C 159.578125 169.675781 160.089844 168.683594 160.644531 167.707031 C 161.199219 166.734375 161.789062 165.785156 162.417969 164.863281 C 163.042969 163.941406 163.703125 163.050781 164.398438 162.191406 C 165.09375 161.328125 165.816406 160.503906 166.574219 159.710938 C 167.328125 158.917969 168.109375 158.164062 168.917969 157.449219 C 169.726562 156.734375 170.554688 156.0625 171.410156 155.429688 C 172.261719 154.800781 173.136719 154.214844 174.027344 153.671875 C 174.917969 153.132812 175.820312 152.636719 176.742188 152.191406 C 177.660156 151.746094 178.589844 151.347656 179.527344 151 C 180.46875 150.65625 181.414062 150.359375 182.363281 150.113281 C 183.3125 149.871094 184.261719 149.679688 185.214844 149.539062 C 186.164062 149.402344 187.113281 149.316406 188.058594 149.28125 C 189 149.25 189.9375 149.269531 190.863281 149.34375 C 191.792969 149.417969 192.707031 149.542969 193.605469 149.722656 C 194.507812 149.902344 195.394531 150.136719 196.261719 150.421875 C 197.128906 150.703125 197.972656 151.039062 198.800781 151.425781 Z M 198.800781 151.425781 " fill-opacity="1" fill-rule="nonzero"/><path fill="#e48e1e" d="M 102.652344 127.527344 C 102.652344 127.527344 81.15625 57.046875 59.328125 46.273438 C 37.5 35.5 44.585938 100.359375 44.585938 100.359375 Z M 102.652344 127.527344 " fill-opacity="1" fill-rule="nonzero"/><path fill="#e48e1e" d="M 91.148438 149.246094 C 91.148438 149.246094 27.007812 168.179688 18.21875 151.457031 C 9.425781 134.730469 31.855469 127.527344 31.855469 127.527344 Z M 91.148438 149.246094 " fill-opacity="1" fill-rule="nonzero"/><path fill="#f7b60b" d="M 58.972656 108.757812 C 58.761719 108.757812 58.5625 108.71875 58.367188 108.644531 C 58.175781 108.570312 58 108.460938 57.847656 108.320312 C 57.695312 108.179688 57.574219 108.015625 57.480469 107.828125 C 57.386719 107.644531 57.332031 107.445312 57.316406 107.238281 L 53.414062 63.429688 C 53.410156 63.21875 53.441406 63.011719 53.515625 62.8125 C 53.585938 62.613281 53.695312 62.433594 53.835938 62.273438 C 53.976562 62.113281 54.140625 61.988281 54.332031 61.890625 C 54.523438 61.796875 54.722656 61.738281 54.933594 61.71875 C 55.148438 61.703125 55.355469 61.722656 55.558594 61.78125 C 55.761719 61.84375 55.949219 61.941406 56.113281 62.070312 C 56.28125 62.203125 56.417969 62.359375 56.527344 62.546875 C 56.632812 62.730469 56.699219 62.925781 56.730469 63.136719 L 60.632812 106.945312 C 60.652344 107.164062 60.628906 107.378906 60.5625 107.589844 C 60.496094 107.800781 60.390625 107.992188 60.25 108.160156 C 60.109375 108.328125 59.941406 108.464844 59.746094 108.566406 C 59.550781 108.667969 59.339844 108.730469 59.121094 108.75 Z M 58.972656 108.757812 " fill-opacity="1" fill-rule="nonzero"/><path fill="#f7b60b" d="M 71.726562 114.71875 C 71.515625 114.722656 71.3125 114.683594 71.117188 114.605469 C 70.921875 114.53125 70.746094 114.421875 70.589844 114.277344 C 70.4375 114.132812 70.3125 113.96875 70.222656 113.777344 C 70.132812 113.585938 70.078125 113.386719 70.0625 113.179688 L 68.152344 86.414062 C 68.125 86.1875 68.140625 85.964844 68.207031 85.746094 C 68.269531 85.527344 68.375 85.328125 68.519531 85.152344 C 68.664062 84.976562 68.839844 84.835938 69.042969 84.730469 C 69.246094 84.625 69.460938 84.566406 69.6875 84.550781 C 69.914062 84.535156 70.136719 84.5625 70.351562 84.636719 C 70.570312 84.710938 70.761719 84.824219 70.929688 84.980469 C 71.097656 85.132812 71.230469 85.3125 71.324219 85.523438 C 71.421875 85.730469 71.46875 85.949219 71.476562 86.175781 L 73.355469 112.941406 C 73.371094 113.160156 73.34375 113.375 73.273438 113.582031 C 73.203125 113.792969 73.097656 113.980469 72.953125 114.148438 C 72.808594 114.3125 72.636719 114.445312 72.4375 114.546875 C 72.242188 114.644531 72.035156 114.703125 71.8125 114.71875 Z M 71.726562 114.71875 " fill-opacity="1" fill-rule="nonzero"/><path fill="#f7b60b" d="M 32.394531 147.730469 C 32.191406 147.730469 31.996094 147.699219 31.808594 147.628906 C 31.617188 147.558594 31.445312 147.457031 31.292969 147.324219 C 31.140625 147.195312 31.015625 147.039062 30.917969 146.859375 C 30.820312 146.683594 30.761719 146.492188 30.734375 146.292969 C 30.707031 146.09375 30.714844 145.894531 30.757812 145.695312 C 30.804688 145.5 30.882812 145.316406 30.996094 145.148438 C 31.109375 144.980469 31.246094 144.835938 31.410156 144.71875 C 31.574219 144.601562 31.753906 144.515625 31.949219 144.464844 L 58.527344 137.0625 C 58.738281 137.003906 58.953125 136.984375 59.171875 137.011719 C 59.394531 137.035156 59.597656 137.101562 59.792969 137.207031 C 59.984375 137.316406 60.152344 137.453125 60.289062 137.628906 C 60.425781 137.800781 60.527344 137.992188 60.585938 138.207031 C 60.648438 138.417969 60.667969 138.632812 60.640625 138.851562 C 60.617188 139.074219 60.550781 139.277344 60.445312 139.472656 C 60.335938 139.664062 60.199219 139.832031 60.023438 139.96875 C 59.851562 140.105469 59.660156 140.207031 59.449219 140.269531 L 32.839844 147.675781 C 32.695312 147.710938 32.546875 147.730469 32.394531 147.730469 Z M 32.394531 147.730469 " fill-opacity="1" fill-rule="nonzero"/><path fill="#f7b60b" d="M 188.414062 179.234375 L 188.25 179.335938 C 187.59375 179.710938 186.890625 179.933594 186.140625 180.007812 C 185.386719 180.085938 184.652344 180.003906 183.9375 179.769531 L 38.816406 132.035156 C 38.007812 131.769531 37.226562 131.441406 36.46875 131.050781 C 35.710938 130.660156 34.992188 130.214844 34.304688 129.714844 C 33.617188 129.210938 32.972656 128.660156 32.375 128.054688 C 31.773438 127.453125 31.222656 126.804688 30.726562 126.117188 C 30.226562 125.425781 29.785156 124.703125 29.402344 123.941406 C 29.015625 123.183594 28.691406 122.398438 28.429688 121.589844 C 28.167969 120.78125 27.972656 119.953125 27.839844 119.113281 C 27.707031 118.273438 27.640625 117.429688 27.640625 116.578125 C 27.640625 114.820312 27.917969 113.113281 28.476562 111.449219 C 28.660156 110.898438 28.871094 110.363281 29.113281 109.835938 C 29.355469 109.3125 29.625 108.800781 29.921875 108.300781 C 30.214844 107.804688 30.539062 107.324219 30.886719 106.863281 C 31.234375 106.402344 31.605469 105.957031 31.996094 105.535156 C 32.390625 105.113281 32.808594 104.710938 33.246094 104.332031 C 33.683594 103.953125 34.140625 103.597656 34.613281 103.269531 C 35.089844 102.9375 35.578125 102.636719 36.085938 102.359375 C 36.59375 102.078125 37.117188 101.832031 37.648438 101.609375 C 38.183594 101.386719 38.726562 101.191406 39.28125 101.027344 C 39.835938 100.863281 40.398438 100.730469 40.96875 100.625 C 41.535156 100.523438 42.109375 100.449219 42.6875 100.40625 C 43.261719 100.363281 43.839844 100.351562 44.417969 100.371094 C 44.996094 100.386719 45.574219 100.4375 46.144531 100.515625 C 46.71875 100.597656 47.285156 100.707031 47.847656 100.847656 C 48.40625 100.988281 48.960938 101.160156 49.503906 101.359375 C 50.046875 101.558594 50.578125 101.785156 51.09375 102.042969 L 188.148438 169.828125 C 189.097656 170.292969 189.835938 170.980469 190.363281 171.890625 C 190.542969 172.195312 190.691406 172.515625 190.808594 172.847656 C 190.925781 173.183594 191.007812 173.523438 191.058594 173.875 C 191.105469 174.226562 191.121094 174.578125 191.097656 174.929688 C 191.078125 175.285156 191.019531 175.628906 190.929688 175.972656 C 190.839844 176.3125 190.714844 176.644531 190.558594 176.960938 C 190.402344 177.277344 190.214844 177.578125 190 177.855469 C 189.785156 178.136719 189.542969 178.394531 189.277344 178.625 C 189.007812 178.855469 188.722656 179.058594 188.414062 179.234375 Z M 188.414062 179.234375 " fill-opacity="1" fill-rule="nonzero"/></svg>