<svg width="1920" height="1080" viewBox="0 0 1920 1080" fill="none" xmlns="http://www.w3.org/2000/svg">
<g clip-path="url(#clip0_110_9)">
<rect width="1920" height="1080" fill="white"/>
<path d="M-1 0H1242C1242 0 510.552 409.757 605.545 580.072C700.538 750.387 976.931 1082 976.931 1082H-1V0Z" fill="#F4602C" fill-opacity="0.9"/>
<path d="M1202.5 622.499C1622.5 532 1875.5 727 1674.5 1010C1473.5 1293 878.009 1082 878.009 1082C878.009 1082 560.062 538.722 604.205 572.513C648.348 606.305 782.5 712.998 1202.5 622.499Z" fill="#81BB27"/>
<path d="M1202.5 622.499C1622.5 532 1875.5 727 1674.5 1010C1473.5 1293 878.009 1082 878.009 1082C878.009 1082 560.062 538.722 604.205 572.513C648.348 606.305 782.5 712.998 1202.5 622.499Z" fill="#81BB27"/>
<path d="M1202.5 622.499C1622.5 532 1875.5 727 1674.5 1010C1473.5 1293 878.009 1082 878.009 1082C878.009 1082 560.062 538.722 604.205 572.513C648.348 606.305 782.5 712.998 1202.5 622.499Z" fill="#81BB27"/>
<path d="M1202.5 622.499C1622.5 532 1875.5 727 1674.5 1010C1473.5 1293 878.009 1082 878.009 1082C878.009 1082 560.062 538.722 604.205 572.513C648.348 606.305 782.5 712.998 1202.5 622.499Z" fill="#81BB27"/>
<path d="M1202.5 622.499C1622.5 532 1875.5 727 1674.5 1010C1473.5 1293 878.009 1082 878.009 1082C878.009 1082 560.062 538.722 604.205 572.513C648.348 606.305 782.5 712.998 1202.5 622.499Z" fill="#81BB27"/>
<path d="M1202.5 622.499C1622.5 532 1875.5 727 1674.5 1010C1473.5 1293 878.009 1082 878.009 1082C878.009 1082 560.062 538.722 604.205 572.513C648.348 606.305 782.5 712.998 1202.5 622.499Z" fill="#81BB27"/>
<path d="M1202.5 622.499C1622.5 532 1875.5 727 1674.5 1010C1473.5 1293 878.009 1082 878.009 1082C878.009 1082 560.062 538.722 604.205 572.513C648.348 606.305 782.5 712.998 1202.5 622.499Z" fill="#81BB27"/>
<path d="M1202.5 622.499C1622.5 532 1875.5 727 1674.5 1010C1473.5 1293 878.009 1082 878.009 1082C878.009 1082 560.062 538.722 604.205 572.513C648.348 606.305 782.5 712.998 1202.5 622.499Z" fill="#81BB27"/>
<path d="M1673 677.498C1669.5 674.498 2040 904.499 2040 1082C2040 1259.5 1404.5 1204 1593.5 1082C1782.5 959.999 1676.5 680.498 1673 677.498Z" fill="#D7FF99"/>
<path d="M1673 677.498C1669.5 674.498 2040 904.499 2040 1082C2040 1259.5 1404.5 1204 1593.5 1082C1782.5 959.999 1676.5 680.498 1673 677.498Z" fill="#D7FF99"/>
<path d="M1673 677.498C1669.5 674.498 2040 904.499 2040 1082C2040 1259.5 1404.5 1204 1593.5 1082C1782.5 959.999 1676.5 680.498 1673 677.498Z" fill="#D7FF99"/>
<path d="M1673 677.498C1669.5 674.498 2040 904.499 2040 1082C2040 1259.5 1404.5 1204 1593.5 1082C1782.5 959.999 1676.5 680.498 1673 677.498Z" fill="#D7FF99"/>
<path d="M1673 677.498C1669.5 674.498 2040 904.499 2040 1082C2040 1259.5 1404.5 1204 1593.5 1082C1782.5 959.999 1676.5 680.498 1673 677.498Z" fill="#D7FF99"/>
<path d="M1673 677.498C1669.5 674.498 2040 904.499 2040 1082C2040 1259.5 1404.5 1204 1593.5 1082C1782.5 959.999 1676.5 680.498 1673 677.498Z" fill="#D7FF99"/>
<path d="M1673 677.498C1669.5 674.498 2040 904.499 2040 1082C2040 1259.5 1404.5 1204 1593.5 1082C1782.5 959.999 1676.5 680.498 1673 677.498Z" fill="#D7FF99"/>
<path d="M1673 677.498C1669.5 674.498 2040 904.499 2040 1082C2040 1259.5 1404.5 1204 1593.5 1082C1782.5 959.999 1676.5 680.498 1673 677.498Z" fill="#D7FF99"/>
</g>
<defs>
<clipPath id="clip0_110_9">
<rect width="1920" height="1080" fill="white"/>
</clipPath>
</defs>
</svg>
