<svg xmlns="http://www.w3.org/2000/svg" xmlns:xlink="http://www.w3.org/1999/xlink" width="500" zoomAndPan="magnify" viewBox="0 0 375 374.999991" height="500" preserveAspectRatio="xMidYMid meet" version="1.0"><defs><clipPath id="a18f2d55e2"><path d="M 0 0 L 374 0 L 374 374.113281 L 0 374.113281 Z M 0 0 " clip-rule="nonzero"/></clipPath></defs><g clip-path="url(#a18f2d55e2)"><path fill="#000000" d="M 322.964844 247.339844 L 357.09375 235.917969 C 358.878906 235.347656 360.574219 234.574219 362.171875 233.59375 C 363.769531 232.613281 365.230469 231.460938 366.546875 230.128906 C 367.867188 228.796875 369.011719 227.328125 369.976562 225.71875 C 370.941406 224.113281 371.703125 222.414062 372.257812 220.625 C 380.804688 191.90625 356.160156 172.335938 334.050781 179.75 L 305.265625 189.433594 C 304.671875 189.632812 304.066406 189.769531 303.449219 189.851562 C 302.828125 189.929688 302.207031 189.945312 301.585938 189.902344 C 300.960938 189.859375 300.347656 189.753906 299.746094 189.589844 C 299.144531 189.425781 298.5625 189.203125 298.003906 188.925781 C 297.449219 188.644531 296.921875 188.316406 296.429688 187.929688 C 295.933594 187.546875 295.484375 187.121094 295.074219 186.648438 C 294.667969 186.175781 294.308594 185.667969 294 185.125 C 293.691406 184.582031 293.441406 184.015625 293.242188 183.421875 L 274.074219 126.449219 C 273.875 125.859375 273.738281 125.253906 273.65625 124.632812 C 273.578125 124.011719 273.5625 123.390625 273.605469 122.769531 C 273.648438 122.144531 273.753906 121.535156 273.917969 120.929688 C 274.082031 120.328125 274.304688 119.75 274.582031 119.191406 C 274.863281 118.632812 275.191406 118.105469 275.578125 117.613281 C 275.960938 117.121094 276.386719 116.667969 276.859375 116.261719 C 277.332031 115.851562 277.839844 115.492188 278.382812 115.183594 C 278.925781 114.875 279.492188 114.625 280.085938 114.425781 L 308.871094 104.808594 C 330.847656 97.460938 338.792969 67.273438 315.152344 49.441406 C 313.578125 48.308594 311.890625 47.378906 310.09375 46.652344 C 308.296875 45.929688 306.4375 45.429688 304.515625 45.15625 C 302.597656 44.882812 300.671875 44.84375 298.742188 45.039062 C 296.816406 45.230469 294.9375 45.652344 293.109375 46.300781 L 259.378906 57.523438 C 258.886719 57.6875 258.378906 57.808594 257.859375 57.875 C 257.339844 57.941406 256.820312 57.957031 256.296875 57.921875 C 255.777344 57.886719 255.261719 57.800781 254.757812 57.664062 C 254.253906 57.527344 253.765625 57.34375 253.296875 57.109375 C 252.828125 56.878906 252.386719 56.601562 251.972656 56.28125 C 251.558594 55.960938 251.179688 55.605469 250.835938 55.210938 C 250.496094 54.816406 250.191406 54.390625 249.933594 53.9375 C 249.671875 53.484375 249.460938 53.007812 249.296875 52.511719 L 238.742188 20.921875 C 231.394531 -1.054688 201.207031 -9 183.371094 14.640625 C 182.238281 16.214844 181.3125 17.902344 180.585938 19.699219 C 179.863281 21.496094 179.363281 23.355469 179.089844 25.277344 C 178.816406 27.195312 178.777344 29.121094 178.96875 31.050781 C 179.164062 32.976562 179.585938 34.855469 180.234375 36.683594 L 191.453125 70.078125 C 191.652344 70.671875 191.792969 71.277344 191.871094 71.894531 C 191.949219 72.515625 191.96875 73.136719 191.925781 73.757812 C 191.878906 74.382812 191.777344 74.996094 191.613281 75.597656 C 191.449219 76.199219 191.226562 76.78125 190.945312 77.339844 C 190.667969 77.898438 190.335938 78.421875 189.953125 78.914062 C 189.570312 79.410156 189.140625 79.859375 188.667969 80.269531 C 188.199219 80.675781 187.691406 81.035156 187.148438 81.34375 C 186.605469 81.652344 186.035156 81.90625 185.441406 82.101562 L 125.332031 102.136719 C 124.738281 102.335938 124.132812 102.476562 123.515625 102.554688 C 122.894531 102.632812 122.273438 102.652344 121.652344 102.609375 C 121.027344 102.5625 120.414062 102.460938 119.8125 102.296875 C 119.210938 102.132812 118.628906 101.910156 118.070312 101.628906 C 117.511719 101.351562 116.988281 101.019531 116.496094 100.636719 C 116 100.253906 115.550781 99.824219 115.140625 99.351562 C 114.734375 98.882812 114.375 98.375 114.066406 97.832031 C 113.757812 97.289062 113.503906 96.71875 113.308594 96.125 L 103.222656 66.003906 C 95.875 44.03125 65.6875 36.082031 47.855469 59.726562 C 46.722656 61.300781 45.792969 62.984375 45.066406 64.78125 C 44.34375 66.582031 43.84375 68.441406 43.570312 70.359375 C 43.296875 72.277344 43.257812 74.203125 43.453125 76.132812 C 43.644531 78.0625 44.066406 79.941406 44.714844 81.765625 L 56.46875 116.832031 C 56.652344 117.332031 56.785156 117.84375 56.867188 118.371094 C 56.949219 118.894531 56.976562 119.425781 56.949219 119.957031 C 56.925781 120.488281 56.847656 121.011719 56.71875 121.527344 C 56.585938 122.042969 56.40625 122.542969 56.175781 123.019531 C 55.945312 123.5 55.667969 123.953125 55.347656 124.375 C 55.027344 124.800781 54.667969 125.1875 54.265625 125.539062 C 53.867188 125.894531 53.4375 126.203125 52.976562 126.464844 C 52.515625 126.730469 52.03125 126.949219 51.527344 127.117188 L 17.597656 138.472656 C 15.8125 139.152344 14.121094 140.015625 12.519531 141.058594 C 10.917969 142.101562 9.449219 143.304688 8.105469 144.664062 C 6.765625 146.023438 5.582031 147.511719 4.558594 149.125 C 3.535156 150.738281 2.695312 152.441406 2.035156 154.234375 C -4.644531 178.210938 11.585938 195.710938 30.019531 196.179688 C 33.539062 196.265625 36.96875 195.753906 40.308594 194.644531 L 69.09375 184.957031 C 69.6875 184.757812 70.292969 184.621094 70.910156 184.542969 C 71.53125 184.460938 72.152344 184.445312 72.773438 184.488281 C 73.398438 184.53125 74.011719 184.636719 74.613281 184.800781 C 75.214844 184.964844 75.796875 185.1875 76.355469 185.464844 C 76.910156 185.746094 77.4375 186.078125 77.929688 186.460938 C 78.425781 186.84375 78.875 187.269531 79.285156 187.742188 C 79.691406 188.214844 80.050781 188.722656 80.359375 189.265625 C 80.667969 189.808594 80.917969 190.375 81.117188 190.96875 L 100.417969 248.007812 C 100.617188 248.601562 100.757812 249.207031 100.835938 249.824219 C 100.914062 250.445312 100.933594 251.066406 100.886719 251.691406 C 100.84375 252.3125 100.742188 252.925781 100.578125 253.527344 C 100.410156 254.128906 100.191406 254.710938 99.910156 255.269531 C 99.632812 255.828125 99.300781 256.351562 98.917969 256.847656 C 98.535156 257.339844 98.105469 257.789062 97.632812 258.199219 C 97.160156 258.609375 96.652344 258.964844 96.109375 259.273438 C 95.566406 259.582031 95 259.835938 94.40625 260.03125 L 61.945312 270.917969 C 60.160156 271.597656 58.46875 272.460938 56.867188 273.503906 C 55.269531 274.550781 53.796875 275.75 52.457031 277.109375 C 51.113281 278.46875 49.929688 279.957031 48.90625 281.570312 C 47.882812 283.183594 47.042969 284.886719 46.386719 286.679688 C 39.707031 310.660156 55.9375 328.15625 74.371094 328.625 C 77.933594 328.726562 81.40625 328.214844 84.789062 327.089844 L 115.046875 316.9375 C 115.542969 316.769531 116.046875 316.652344 116.566406 316.585938 C 117.085938 316.515625 117.605469 316.5 118.128906 316.535156 C 118.648438 316.570312 119.164062 316.65625 119.667969 316.792969 C 120.171875 316.929688 120.660156 317.113281 121.128906 317.347656 C 121.597656 317.578125 122.039062 317.855469 122.453125 318.175781 C 122.867188 318.496094 123.246094 318.851562 123.589844 319.246094 C 123.933594 319.640625 124.234375 320.066406 124.492188 320.519531 C 124.753906 320.976562 124.964844 321.449219 125.132812 321.945312 L 135.683594 353.539062 C 136.171875 355.007812 136.769531 356.429688 137.476562 357.808594 C 138.183594 359.1875 138.992188 360.503906 139.902344 361.757812 C 140.808594 363.007812 141.808594 364.1875 142.898438 365.285156 C 143.988281 366.386719 145.15625 367.398438 146.402344 368.320312 C 147.644531 369.238281 148.953125 370.058594 150.324219 370.78125 C 151.695312 371.5 153.113281 372.113281 154.578125 372.613281 C 156.042969 373.117188 157.535156 373.503906 159.0625 373.777344 C 160.585938 374.050781 162.121094 374.207031 163.667969 374.242188 C 166.34375 374.25 168.980469 373.9375 171.582031 373.308594 C 174.179688 372.679688 176.667969 371.753906 179.046875 370.527344 C 181.421875 369.300781 183.621094 367.808594 185.640625 366.054688 C 187.660156 364.300781 189.441406 362.332031 190.988281 360.152344 C 192.15625 358.574219 193.117188 356.882812 193.867188 355.074219 C 194.621094 353.261719 195.144531 351.386719 195.433594 349.445312 C 195.726562 347.507812 195.777344 345.5625 195.589844 343.609375 C 195.402344 341.65625 194.980469 339.757812 194.328125 337.910156 L 183.039062 304.515625 C 182.839844 303.921875 182.699219 303.316406 182.621094 302.695312 C 182.542969 302.078125 182.523438 301.457031 182.570312 300.832031 C 182.613281 300.210938 182.714844 299.597656 182.882812 298.996094 C 183.046875 298.394531 183.269531 297.8125 183.546875 297.253906 C 183.824219 296.695312 184.15625 296.167969 184.539062 295.675781 C 184.921875 295.183594 185.351562 294.734375 185.824219 294.324219 C 186.296875 293.914062 186.804688 293.558594 187.347656 293.25 C 187.890625 292.941406 188.457031 292.6875 189.050781 292.492188 L 249.160156 272.453125 C 249.753906 272.253906 250.359375 272.117188 250.980469 272.039062 C 251.597656 271.957031 252.21875 271.941406 252.84375 271.984375 C 253.464844 272.027344 254.078125 272.132812 254.679688 272.296875 C 255.28125 272.460938 255.863281 272.683594 256.421875 272.960938 C 256.980469 273.242188 257.503906 273.574219 258 273.957031 C 258.492188 274.339844 258.941406 274.765625 259.351562 275.238281 C 259.761719 275.710938 260.117188 276.21875 260.425781 276.761719 C 260.734375 277.304688 260.988281 277.871094 261.183594 278.464844 L 271.269531 308.589844 C 271.757812 310.050781 272.359375 311.46875 273.066406 312.84375 C 273.773438 314.214844 274.582031 315.523438 275.488281 316.773438 C 276.394531 318.023438 277.394531 319.195312 278.480469 320.289062 C 279.566406 321.386719 280.730469 322.390625 281.972656 323.308594 C 283.214844 324.226562 284.519531 325.046875 285.886719 325.765625 C 287.253906 326.480469 288.664062 327.089844 290.125 327.59375 C 291.585938 328.09375 293.074219 328.484375 294.59375 328.757812 C 296.113281 329.03125 297.644531 329.1875 299.1875 329.226562 C 300.546875 329.214844 301.902344 329.121094 303.25 328.941406 C 304.597656 328.761719 305.929688 328.5 307.242188 328.15625 C 308.558594 327.8125 309.847656 327.390625 311.109375 326.886719 C 312.371094 326.382812 313.601562 325.800781 314.789062 325.144531 C 315.980469 324.488281 317.125 323.761719 318.226562 322.960938 C 319.328125 322.164062 320.375 321.300781 321.367188 320.371094 C 322.359375 319.445312 323.292969 318.457031 324.164062 317.414062 C 325.035156 316.371094 325.835938 315.277344 326.570312 314.132812 C 327.683594 312.582031 328.59375 310.917969 329.308594 309.148438 C 330.019531 307.378906 330.511719 305.550781 330.785156 303.660156 C 331.058594 301.773438 331.105469 299.878906 330.921875 297.976562 C 330.742188 296.078125 330.335938 294.226562 329.710938 292.425781 L 317.957031 257.359375 C 317.792969 256.867188 317.679688 256.363281 317.617188 255.847656 C 317.554688 255.332031 317.539062 254.8125 317.578125 254.296875 C 317.617188 253.777344 317.703125 253.265625 317.839844 252.765625 C 317.980469 252.265625 318.164062 251.78125 318.394531 251.316406 C 318.628906 250.851562 318.902344 250.414062 319.222656 250.003906 C 319.539062 249.59375 319.894531 249.21875 320.285156 248.878906 C 320.679688 248.535156 321.101562 248.234375 321.550781 247.976562 C 322 247.71875 322.472656 247.507812 322.964844 247.339844 Z M 227.320312 215.683594 L 172.621094 233.984375 C 171.84375 234.246094 171.054688 234.429688 170.242188 234.535156 C 169.433594 234.640625 168.621094 234.667969 167.804688 234.613281 C 166.988281 234.558594 166.1875 234.421875 165.398438 234.210938 C 164.609375 233.996094 163.847656 233.710938 163.117188 233.347656 C 162.382812 232.984375 161.695312 232.550781 161.046875 232.054688 C 160.402344 231.554688 159.808594 230.996094 159.269531 230.382812 C 158.734375 229.765625 158.261719 229.101562 157.855469 228.394531 C 157.449219 227.683594 157.117188 226.941406 156.855469 226.167969 L 139.625 174.539062 C 139.363281 173.777344 139.179688 172.992188 139.070312 172.195312 C 138.964844 171.394531 138.933594 170.59375 138.984375 169.789062 C 139.03125 168.984375 139.15625 168.191406 139.359375 167.410156 C 139.5625 166.628906 139.835938 165.875 140.1875 165.148438 C 140.535156 164.421875 140.953125 163.734375 141.4375 163.085938 C 141.921875 162.441406 142.460938 161.847656 143.058594 161.308594 C 143.660156 160.769531 144.304688 160.289062 144.996094 159.875 C 145.6875 159.460938 146.414062 159.117188 147.171875 158.84375 L 201.875 140.476562 C 202.648438 140.214844 203.441406 140.03125 204.25 139.925781 C 205.058594 139.816406 205.875 139.792969 206.6875 139.847656 C 207.503906 139.902344 208.304688 140.035156 209.09375 140.25 C 209.882812 140.460938 210.644531 140.75 211.375 141.113281 C 212.109375 141.476562 212.796875 141.90625 213.445312 142.40625 C 214.09375 142.902344 214.683594 143.460938 215.222656 144.078125 C 215.757812 144.691406 216.230469 145.355469 216.636719 146.066406 C 217.042969 146.773438 217.375 147.515625 217.636719 148.289062 L 234.867188 199.785156 C 235.144531 200.554688 235.339844 201.34375 235.460938 202.152344 C 235.582031 202.960938 235.621094 203.773438 235.578125 204.589844 C 235.539062 205.40625 235.417969 206.210938 235.21875 207.003906 C 235.019531 207.796875 234.746094 208.5625 234.394531 209.300781 C 234.042969 210.039062 233.625 210.734375 233.136719 211.390625 C 232.648438 212.046875 232.101562 212.648438 231.492188 213.195312 C 230.886719 213.742188 230.230469 214.226562 229.53125 214.644531 C 228.828125 215.0625 228.089844 215.410156 227.320312 215.683594 Z M 227.320312 215.683594 " fill-opacity="1" fill-rule="nonzero"/></g></svg>