<svg xmlns="http://www.w3.org/2000/svg" xmlns:xlink="http://www.w3.org/1999/xlink" width="500" zoomAndPan="magnify" viewBox="0 0 375 374.999991" height="500" preserveAspectRatio="xMidYMid meet" version="1.0"><path fill="#b3e6fa" d="M 186.984375 89.898438 C 127.789062 89.898438 74.613281 119.675781 38.015625 166.953125 C 74.613281 214.226562 127.789062 244.007812 186.984375 244.007812 C 246.183594 244.007812 299.359375 214.226562 335.957031 166.953125 C 299.359375 119.675781 246.183594 89.898438 186.984375 89.898438 " fill-opacity="1" fill-rule="nonzero"/><path fill="#6dbbea" d="M 212.332031 213.183594 C 159.054688 213.183594 110.414062 190.511719 73.03125 153.167969 C 108.746094 126.175781 151.410156 110.445312 197.261719 110.445312 C 247.265625 110.445312 293.4375 129.207031 330.960938 160.832031 C 294.601562 117.148438 243.574219 89.898438 186.984375 89.898438 C 127.789062 89.898438 74.613281 119.675781 38.015625 166.953125 C 74.613281 214.226562 127.789062 244.007812 186.984375 244.007812 C 245.621094 244.007812 298.292969 214.769531 334.855469 168.296875 C 300.179688 196.53125 257.960938 213.183594 212.332031 213.183594 " fill-opacity="1" fill-rule="nonzero"/><path fill="#f7b60b" d="M 264.042969 166.953125 C 264.042969 124.390625 229.546875 89.898438 186.984375 89.898438 C 144.425781 89.898438 109.929688 124.390625 109.929688 166.953125 C 109.929688 192.136719 122.070312 214.429688 140.753906 228.496094 L 140.753906 244.007812 L 233.21875 244.007812 L 233.21875 228.496094 C 251.902344 214.429688 264.042969 192.136719 264.042969 166.953125 " fill-opacity="1" fill-rule="nonzero"/><path fill="#d2dbda" d="M 238.355469 264.554688 L 135.617188 264.554688 C 129.9375 264.554688 125.34375 259.960938 125.34375 254.28125 C 125.34375 248.601562 129.9375 244.007812 135.617188 244.007812 L 238.355469 244.007812 C 244.035156 244.007812 248.628906 248.601562 248.628906 254.28125 C 248.628906 259.960938 244.035156 264.554688 238.355469 264.554688 " fill-opacity="1" fill-rule="nonzero"/><path fill="#d2dbda" d="M 238.355469 285.101562 L 135.617188 285.101562 C 129.9375 285.101562 125.34375 280.507812 125.34375 274.828125 C 125.34375 269.148438 129.9375 264.554688 135.617188 264.554688 L 238.355469 264.554688 C 244.035156 264.554688 248.628906 269.148438 248.628906 274.828125 C 248.628906 280.507812 244.035156 285.101562 238.355469 285.101562 " fill-opacity="1" fill-rule="nonzero"/><path fill="#8f9697" d="M 186.984375 336.472656 C 161.460938 336.472656 140.753906 315.765625 140.753906 290.238281 L 140.753906 285.101562 L 233.21875 285.101562 L 233.21875 290.238281 C 233.21875 315.765625 212.511719 336.472656 186.984375 336.472656 " fill-opacity="1" fill-rule="nonzero"/><path fill="#e48e1e" d="M 243.492188 218.320312 C 186.746094 218.320312 140.753906 172.328125 140.753906 115.582031 C 140.753906 112.011719 140.933594 108.480469 141.296875 105.007812 C 122.292969 119.035156 109.929688 141.527344 109.929688 166.953125 C 109.929688 192.136719 122.070312 214.429688 140.753906 228.496094 L 140.753906 244.007812 L 233.21875 244.007812 L 233.21875 228.496094 C 237.234375 225.484375 240.863281 222.015625 244.214844 218.28125 C 243.976562 218.28125 243.734375 218.320312 243.492188 218.320312 " fill-opacity="1" fill-rule="nonzero"/><path fill="#6dbbea" d="M 222.945312 166.953125 C 222.945312 186.816406 206.851562 202.910156 186.984375 202.910156 C 167.121094 202.910156 151.027344 186.816406 151.027344 166.953125 C 151.027344 147.085938 167.121094 130.992188 186.984375 130.992188 C 206.851562 130.992188 222.945312 147.085938 222.945312 166.953125 " fill-opacity="1" fill-rule="nonzero"/><path fill="#b3e6fa" d="M 222.945312 146.402344 C 222.945312 154.914062 216.042969 161.816406 207.535156 161.816406 C 199.027344 161.816406 192.125 154.914062 192.125 146.402344 C 192.125 137.894531 199.027344 130.992188 207.535156 130.992188 C 216.042969 130.992188 222.945312 137.894531 222.945312 146.402344 " fill-opacity="1" fill-rule="nonzero"/><path fill="#578fd3" d="M 151.527344 161.191406 C 151.226562 163.058594 151.027344 164.984375 151.027344 166.953125 C 151.027344 186.816406 167.121094 202.910156 186.984375 202.910156 C 187.789062 202.910156 188.570312 202.832031 189.375 202.789062 C 173.199219 192.738281 160.058594 178.351562 151.527344 161.191406 " fill-opacity="1" fill-rule="nonzero"/><path fill="#8f9697" d="M 140.753906 244.007812 L 135.617188 244.007812 C 129.9375 244.007812 125.34375 248.601562 125.34375 254.28125 C 125.34375 259.960938 129.9375 264.554688 135.617188 264.554688 L 238.355469 264.554688 C 244.035156 264.554688 248.628906 259.960938 248.628906 254.28125 L 151.027344 254.28125 C 145.347656 254.28125 140.753906 249.6875 140.753906 244.007812 " fill-opacity="1" fill-rule="nonzero"/><path fill="#8f9697" d="M 140.753906 264.554688 L 135.617188 264.554688 C 129.9375 264.554688 125.34375 269.148438 125.34375 274.828125 C 125.34375 280.507812 129.9375 285.101562 135.617188 285.101562 L 238.355469 285.101562 C 244.035156 285.101562 248.628906 280.507812 248.628906 274.828125 L 151.027344 274.828125 C 145.347656 274.828125 140.753906 270.234375 140.753906 264.554688 " fill-opacity="1" fill-rule="nonzero"/><path fill="#5e6574" d="M 202.398438 305.652344 L 230.53125 305.652344 C 232.234375 300.835938 233.21875 295.65625 233.21875 290.238281 L 233.21875 285.101562 L 140.753906 285.101562 L 140.753906 290.238281 C 140.753906 310.40625 153.695312 327.523438 171.714844 333.84375 C 173.039062 318.050781 186.265625 305.652344 202.398438 305.652344 " fill-opacity="1" fill-rule="nonzero"/><path fill="#f3e305" d="M 218.589844 71.898438 C 218.089844 71.898438 217.609375 71.835938 217.105469 71.695312 C 214.398438 70.875 212.851562 68.003906 213.65625 65.296875 L 219.613281 45.429688 C 220.4375 42.703125 223.304688 41.175781 226.015625 41.980469 C 228.746094 42.800781 230.289062 45.652344 229.464844 48.359375 L 223.507812 68.246094 C 222.824219 70.472656 220.796875 71.898438 218.589844 71.898438 " fill-opacity="1" fill-rule="nonzero"/><path fill="#f3e305" d="M 253.40625 80.527344 C 252.582031 80.527344 251.742188 80.324219 250.976562 79.902344 C 248.46875 78.558594 247.546875 75.429688 248.910156 72.941406 L 258.84375 54.621094 C 260.207031 52.132812 263.320312 51.210938 265.808594 52.554688 C 268.316406 53.917969 269.238281 57.027344 267.875 59.535156 L 257.941406 77.859375 C 256.996094 79.5625 255.230469 80.527344 253.40625 80.527344 " fill-opacity="1" fill-rule="nonzero"/><path fill="#f3e305" d="M 289.425781 96.660156 C 288.261719 96.660156 287.097656 96.257812 286.132812 95.457031 C 283.96875 93.628906 283.6875 90.378906 285.511719 88.210938 L 299.015625 72.179688 C 300.84375 70.011719 304.074219 69.730469 306.261719 71.554688 C 308.429688 73.382812 308.707031 76.632812 306.863281 78.800781 L 293.359375 94.832031 C 292.355469 96.039062 290.890625 96.660156 289.425781 96.660156 " fill-opacity="1" fill-rule="nonzero"/><path fill="#f3e305" d="M 315.632812 122.183594 C 314.167969 122.183594 312.703125 121.5625 311.699219 120.359375 C 309.871094 118.191406 310.152344 114.941406 312.320312 113.113281 L 328.234375 99.75 C 330.402344 97.945312 333.652344 98.203125 335.457031 100.371094 C 337.285156 102.558594 337.003906 105.789062 334.835938 107.617188 L 318.921875 120.980469 C 317.960938 121.78125 316.796875 122.183594 315.632812 122.183594 " fill-opacity="1" fill-rule="nonzero"/><path fill="#f3e305" d="M 84.546875 96.660156 C 83.082031 96.660156 81.617188 96.039062 80.613281 94.832031 L 67.109375 78.800781 C 65.265625 76.632812 65.542969 73.382812 67.710938 71.554688 C 69.878906 69.730469 73.128906 70.011719 74.957031 72.179688 L 88.460938 88.210938 C 90.285156 90.378906 90.003906 93.628906 87.839844 95.457031 C 86.875 96.257812 85.710938 96.660156 84.546875 96.660156 " fill-opacity="1" fill-rule="nonzero"/><path fill="#f3e305" d="M 120.566406 80.527344 C 118.742188 80.527344 116.976562 79.5625 116.03125 77.859375 L 106.097656 59.535156 C 104.734375 57.027344 105.65625 53.917969 108.164062 52.554688 C 110.652344 51.210938 113.765625 52.132812 115.128906 54.621094 L 125.0625 72.941406 C 126.425781 75.429688 125.503906 78.558594 122.996094 79.902344 C 122.230469 80.324219 121.390625 80.527344 120.566406 80.527344 " fill-opacity="1" fill-rule="nonzero"/><path fill="#f3e305" d="M 58.339844 122.183594 C 57.238281 122.183594 56.132812 121.84375 55.210938 121.121094 L 40 109.363281 C 37.773438 107.636719 37.351562 104.425781 39.078125 102.179688 C 40.824219 99.929688 44.054688 99.507812 46.300781 101.253906 L 61.492188 112.972656 C 63.738281 114.71875 64.140625 117.949219 62.414062 120.199219 C 61.390625 121.5 59.886719 122.183594 58.339844 122.183594 " fill-opacity="1" fill-rule="nonzero"/><path fill="#f3e305" d="M 155.382812 71.898438 C 153.175781 71.898438 151.148438 70.472656 150.464844 68.246094 L 144.503906 48.359375 C 143.683594 45.652344 145.226562 42.800781 147.957031 41.980469 C 150.6875 41.175781 153.535156 42.703125 154.359375 45.429688 L 160.316406 65.296875 C 161.121094 68.003906 159.574219 70.875 156.867188 71.695312 C 156.363281 71.835938 155.882812 71.898438 155.382812 71.898438 " fill-opacity="1" fill-rule="nonzero"/><path fill="#f3e305" d="M 186.984375 69.347656 C 184.15625 69.347656 181.847656 67.042969 181.847656 64.210938 L 181.847656 43.664062 C 181.847656 40.835938 184.15625 38.527344 186.984375 38.527344 C 189.816406 38.527344 192.125 40.835938 192.125 43.664062 L 192.125 64.210938 C 192.125 67.042969 189.816406 69.347656 186.984375 69.347656 " fill-opacity="1" fill-rule="nonzero"/><path fill="#f3e305" d="M 207.535156 244.007812 L 197.261719 244.007812 L 197.261719 199.398438 C 197.261719 197.414062 198.402344 195.625 200.191406 194.765625 C 210.886719 189.667969 217.808594 178.75 217.808594 166.953125 C 217.808594 166.050781 217.769531 165.167969 217.6875 164.261719 C 214.65625 166.007812 211.167969 166.953125 207.535156 166.953125 C 196.195312 166.953125 186.984375 157.742188 186.984375 146.402344 C 186.984375 142.753906 187.929688 139.28125 189.675781 136.25 C 188.773438 136.171875 187.890625 136.128906 186.984375 136.128906 C 169.988281 136.128906 156.164062 149.957031 156.164062 166.953125 C 156.164062 178.75 163.085938 189.667969 173.78125 194.765625 C 175.570312 195.625 176.710938 197.414062 176.710938 199.398438 L 176.710938 244.007812 L 166.4375 244.007812 L 166.4375 202.488281 C 153.855469 195.207031 145.890625 181.582031 145.890625 166.953125 C 145.890625 144.296875 164.332031 125.855469 186.984375 125.855469 C 191.84375 125.855469 196.679688 126.738281 201.332031 128.484375 C 203.179688 129.167969 204.464844 130.832031 204.644531 132.800781 C 204.824219 134.746094 203.882812 136.652344 202.214844 137.675781 C 199.105469 139.5625 197.261719 142.832031 197.261719 146.402344 C 197.261719 152.0625 201.875 156.679688 207.535156 156.679688 C 211.105469 156.679688 214.375 154.832031 216.261719 151.722656 C 217.285156 150.054688 219.152344 149.09375 221.140625 149.292969 C 223.105469 149.472656 224.769531 150.757812 225.453125 152.605469 C 227.199219 157.261719 228.082031 162.097656 228.082031 166.953125 C 228.082031 181.582031 220.117188 195.207031 207.535156 202.488281 L 207.535156 244.007812 " fill-opacity="1" fill-rule="nonzero"/><path fill="#f3e305" d="M 297.8125 261.34375 C 296.347656 261.34375 294.902344 260.722656 293.878906 259.519531 L 280.375 243.484375 C 278.550781 241.296875 278.828125 238.066406 280.996094 236.242188 C 283.144531 234.414062 286.394531 234.675781 288.222656 236.84375 L 301.726562 252.894531 C 303.570312 255.0625 303.289062 258.292969 301.125 260.140625 C 300.160156 260.941406 298.976562 261.34375 297.8125 261.34375 " fill-opacity="1" fill-rule="nonzero"/><path fill="#f3e305" d="M 331.523438 233.152344 C 330.359375 233.152344 329.195312 232.75 328.234375 231.945312 L 312.320312 218.582031 C 310.152344 216.757812 309.871094 213.527344 311.699219 211.339844 C 313.523438 209.171875 316.753906 208.890625 318.921875 210.714844 L 334.835938 224.0625 C 337.003906 225.886719 337.285156 229.136719 335.457031 231.304688 C 334.453125 232.527344 332.988281 233.152344 331.523438 233.152344 " fill-opacity="1" fill-rule="nonzero"/><path fill="#f3e305" d="M 76.160156 261.34375 C 74.996094 261.34375 73.8125 260.941406 72.847656 260.140625 C 70.683594 258.292969 70.402344 255.0625 72.246094 252.894531 L 85.75 236.84375 C 87.578125 234.695312 90.808594 234.414062 92.976562 236.242188 C 95.144531 238.066406 95.421875 241.296875 93.597656 243.484375 L 80.09375 259.519531 C 79.070312 260.722656 77.625 261.34375 76.160156 261.34375 " fill-opacity="1" fill-rule="nonzero"/><path fill="#f3e305" d="M 43.152344 231.527344 C 41.625 231.527344 40.101562 230.824219 39.078125 229.519531 C 37.351562 227.273438 37.773438 224.039062 40 222.316406 L 55.210938 210.578125 C 57.457031 208.851562 60.667969 209.25 62.414062 211.5 C 64.140625 213.746094 63.738281 216.976562 61.492188 218.722656 L 46.300781 230.441406 C 45.359375 231.164062 44.253906 231.527344 43.152344 231.527344 " fill-opacity="1" fill-rule="nonzero"/></svg>